<?xml version="1.0" standalone="no"?>
<!DOCTYPE svg PUBLIC "-//W3C//DTD SVG 1.1//EN" "http://www.w3.org/Graphics/SVG/1.1/DTD/svg11.dtd" >
<svg xmlns="http://www.w3.org/2000/svg">
<metadata></metadata>
<defs>
<font id="neuropoliticalregular" horiz-adv-x="1818" >
<font-face units-per-em="2048" ascent="1597" descent="-451" />
<missing-glyph horiz-adv-x="813" />
<glyph unicode="&#x28;C&#x29;" horiz-adv-x="1777" d="M111 479v439q0 131 25.5 223t87 148.5t163.5 82t256 25.5h490q156 0 258 -25.5t163.5 -82t87 -148.5t25.5 -223v-439q0 -133 -25.5 -224t-87 -147.5t-164 -82t-257.5 -25.5h-490q-154 0 -256 25.5t-163.5 82t-87 147.5t-25.5 224zM254 479q0 -96 17.5 -160.5t60.5 -102.5 t118.5 -54.5t192.5 -16.5h490q117 0 192.5 16.5t119.5 54.5t61.5 102.5t17.5 160.5v439q0 94 -17.5 158.5t-61.5 103.5t-120 55t-192 16h-490q-117 0 -192.5 -16t-118.5 -55t-60.5 -103.5t-17.5 -158.5v-439zM512 614v205q0 61 12.5 105.5t42 71t78.5 39t121 12.5h453v-121 h-443q-76 0 -99.5 -22.5t-23.5 -90.5v-192q0 -70 26 -91.5t97 -21.5h443v-121h-453q-74 0 -122 12.5t-77.5 39t-42 70.5t-12.5 105z" />
<glyph unicode="&#x28;R&#x29;" horiz-adv-x="1777" d="M109 479v439q0 131 25.5 223t87 148.5t163.5 82t258 25.5h490q156 0 258 -25.5t163.5 -82t87 -148.5t25.5 -223v-439q0 -133 -25.5 -224t-87 -147.5t-164 -82t-257.5 -25.5h-490q-156 0 -258 25.5t-163.5 82t-87 147.5t-25.5 224zM254 479q0 -96 17.5 -160.5t60.5 -102.5 t118.5 -54.5t192.5 -16.5h490q117 0 192.5 16.5t118.5 54.5t60.5 102.5t17.5 160.5v439q0 94 -17.5 157.5t-60.5 102.5t-119 55t-192 16h-490q-117 0 -192.5 -16t-118.5 -55t-60.5 -102.5t-17.5 -157.5v-439zM514 389v658h512q70 0 119 -8.5t80.5 -31t47 -60.5t15.5 -97v-45 q0 -70 -23.5 -109t-72.5 -57t-124 -21.5t-175 -3.5l401 -225h-243l-400 238v-238h-137zM651 719h363q78 0 105.5 16.5t27.5 71.5v35q0 53 -26.5 67.5t-106.5 14.5h-363v-205z" />
<glyph horiz-adv-x="0" />
<glyph unicode="&#xd;" horiz-adv-x="813" />
<glyph horiz-adv-x="813" />
<glyph unicode=" "  horiz-adv-x="813" />
<glyph unicode="&#x09;" horiz-adv-x="813" />
<glyph unicode="&#xa0;" horiz-adv-x="813" />
<glyph unicode="!" horiz-adv-x="581" d="M135 92v119q0 49 23.5 71.5t81.5 22.5h100q57 0 80.5 -22.5t23.5 -71.5v-119q0 -49 -23.5 -70.5t-80.5 -21.5h-100q-57 0 -81 21.5t-24 70.5zM135 424v973h309v-973h-309z" />
<glyph unicode="&#x22;" horiz-adv-x="856" d="M86 932zM86 1473h276l-34 -541h-211zM494 1473h276l-34 -541h-211z" />
<glyph unicode="#" horiz-adv-x="1347" d="M49 328l29 200h215l45 328h-219l28 201h218l47 340h202l-47 -340h312l47 340h198l-47 -340h217l-26 -201h-219l-43 -328h217l-27 -200h-219l-45 -328h-199l45 328h-311l-45 -328h-201l43 328h-215zM494 528h313l43 328h-311z" />
<glyph unicode="$" horiz-adv-x="1710" d="M113 0v260h643v328h-232q-121 0 -199.5 17.5t-124.5 58.5t-65.5 107.5t-19.5 162.5v70q0 117 24.5 192.5t74.5 120.5t130 62.5t191 17.5h221v102h219v-680h203q121 0 203.5 -17.5t135 -60.5t75 -113.5t22.5 -176.5v-89q0 -98 -22.5 -166.5t-74 -111.5t-131 -63.5 t-196.5 -20.5h-215v-150h-219v150h-643zM393 954q0 -39 6.5 -65.5t22.5 -42t45 -21.5t74 -6h215v316h-207q-47 0 -78 -6.5t-48 -22.5t-23.5 -45t-6.5 -72v-35zM975 260h203q94 0 125.5 29.5t31.5 111.5v48q0 41 -7 67.5t-25.5 42.5t-52 22.5t-85.5 6.5h-190v-328z" />
<glyph unicode="%" horiz-adv-x="2148" d="M106 0zM107 958v219q0 66 13.5 112t44 74.5t82.5 41t130 12.5h277q80 0 132 -12.5t83 -41t44 -74.5t13 -112v-219q0 -66 -13 -112t-44 -74.5t-83 -40.5t-132 -12h-277q-78 0 -130 12t-82.5 40.5t-44 75t-13.5 111.5zM297 970q0 -51 19.5 -69.5t75.5 -18.5h249 q53 0 73 18.5t20 69.5v193q0 51 -19.5 69.5t-73.5 18.5h-249q-55 0 -75 -18.5t-20 -69.5v-193zM458 0l981 1397h238l-981 -1397h-238zM1223 219v219q0 66 13.5 112t44 74.5t82.5 41t130 12.5h277q80 0 132 -12.5t83 -41t44 -74.5t13 -112v-219q0 -66 -13 -112t-44 -74.5 t-83 -40.5t-132 -12h-277q-78 0 -130 12t-82.5 40.5t-44 75t-13.5 111.5zM1413 231q0 -51 19.5 -69.5t75.5 -18.5h249q53 0 73 18.5t20 69.5v193q0 51 -19.5 69.5t-73.5 18.5h-249q-55 0 -75 -18.5t-20 -69.5v-193z" />
<glyph unicode="&#x26;" horiz-adv-x="1904" d="M90 309v131q0 70 14.5 121t49 88t93 62.5t148.5 46.5q-90 55 -127 107.5t-37 129.5v144q0 135 83 196.5t261 61.5h469q197 0 283 -76t86 -205v-90q0 -47 -10 -91t-38 -81t-74 -65.5t-117 -45.5l-287 -69l489 -312q59 80 60 236v82h270v-88q0 -229 -113 -373l336 -219 h-385l-123 80q-92 -49 -205.5 -64.5t-265.5 -15.5h-432q-119 0 -200.5 24.5t-132 66.5t-73 98.5t-22.5 119.5zM391 344q0 -49 31 -74.5t113 -25.5h469q92 0 155 14l-538 348q-68 -14 -113 -26.5t-70.5 -30t-36 -45t-10.5 -70.5v-90zM496 1028q0 -31 3 -53.5t12 -38.5 t25.5 -30.5t45.5 -33.5l77 -49l377 88q51 12 71.5 31t20.5 72v73q0 45 -28.5 61.5t-93.5 16.5h-404q-59 0 -82.5 -20.5t-23.5 -71.5v-45z" />
<glyph unicode="'" horiz-adv-x="448" d="M86 1473h276l-34 -541h-211z" />
<glyph unicode="(" horiz-adv-x="735" d="M217 -51v1403q0 88 26.5 161.5t81 126t134.5 82t186 29.5h64v-164h-66q-223 0 -223 -233v-1409q0 -121 56 -177.5t167 -56.5h66v-162h-64q-106 0 -186 30t-134.5 82t-81 126t-26.5 162z" />
<glyph unicode=")" horiz-adv-x="735" d="M18 -289h66q111 0 167 56.5t56 177.5v1409q0 233 -223 233h-66v164h64q106 0 186 -29.5t134.5 -82t81 -126t26.5 -161.5v-1403q0 -88 -26.5 -162t-81 -126t-134.5 -82t-186 -30h-64v162z" />
<glyph unicode="*" horiz-adv-x="1161" d="M70 1120l55 172l377 -139l-15 403h183l-17 -403l377 139l57 -172l-385 -112l244 -312l-145 -106l-221 328l-224 -328q-37 25 -73.5 51.5t-73.5 52.5l246 314z" />
<glyph unicode="+" horiz-adv-x="1208" d="M121 623v200h383v383h201v-383h382v-200h-382v-383h-201v383h-383z" />
<glyph unicode="," horiz-adv-x="481" d="M84 -150l47 500h299l-119 -500h-227z" />
<glyph unicode="-" horiz-adv-x="811" d="M68 532v242h675v-242h-675z" />
<glyph unicode="." horiz-adv-x="552" d="M121 92v168q0 47 23.5 69.5t80.5 22.5h101q59 0 82.5 -22.5t23.5 -69.5v-168q0 -49 -23.5 -70.5t-82.5 -21.5h-101q-57 0 -80.5 21.5t-23.5 70.5z" />
<glyph unicode="/" horiz-adv-x="1044" d="M8 -207l785 1675h243l-782 -1675h-246z" />
<glyph unicode="0" horiz-adv-x="1832" d="M111 479v439q0 131 25.5 223t87 148.5t163.5 82t256 25.5h545q156 0 258 -25.5t163.5 -82t87 -148.5t25.5 -223v-439q0 -133 -25.5 -224t-87 -147.5t-164 -82t-257.5 -25.5h-545q-154 0 -256 25.5t-163.5 82t-87 147.5t-25.5 224zM420 492q0 -68 9 -112t36 -69.5t73 -35 t119 -9.5h519q68 0 113.5 9.5t72.5 35t38 69.5t11 112v411q0 66 -11 109t-38 69.5t-73 36.5t-113 10h-519q-74 0 -119.5 -10t-72.5 -36.5t-36 -69.5t-9 -109v-411z" />
<glyph unicode="1" horiz-adv-x="552" d="M121 0v1397h311v-1397h-311z" />
<glyph unicode="2" horiz-adv-x="1878" d="M100 0v444q0 98 18.5 171t68 119t133 68.5t217.5 22.5h806q82 0 110 28t28 105v35q0 82 -27 111t-102 29h-512v264h532q205 0 300 -90t95 -306v-69q0 -98 -19 -164t-66.5 -105.5t-125 -56t-192.5 -16.5h-813q-96 0 -131 -33t-35 -125v-168h1382v-264h-1667z" />
<glyph unicode="3" horiz-adv-x="1849" d="M92 0v258h1208q88 0 127 21.5t39 87.5v82q0 86 -34.5 113.5t-120.5 27.5h-1211v235h1203q82 0 112.5 26t30.5 95v86q0 63 -37 85t-137 22h-441v258h449q125 0 213 -18.5t142.5 -57.5t79 -101.5t24.5 -150.5v-104q0 -123 -44 -176.5t-110 -71.5q37 -10 69 -27.5 t55.5 -51.5t35.5 -85t12 -127v-113q0 -84 -23.5 -143t-77.5 -97t-140 -55.5t-209 -17.5h-1215z" />
<glyph unicode="4" horiz-adv-x="1980" d="M111 391v1006h305v-740h1102v740h303v-1397h-303v391h-1407z" />
<glyph unicode="5" horiz-adv-x="1929" d="M121 610v787h1014v-264h-729v-281h985q236 0 335 -83t99 -275v-125q0 -98 -23.5 -169t-76 -115t-134.5 -64.5t-200 -20.5h-1268v264h1239q106 0 142 25.5t36 97.5v90q0 66 -33.5 99.5t-132.5 33.5h-1253z" />
<glyph unicode="6" horiz-adv-x="1933" d="M111 479v439q0 131 25.5 223t87 148.5t163.5 82t256 25.5h442v-264h-432q-68 0 -111.5 -9.5t-71.5 -34t-39 -66.5t-11 -105v-70h1028q106 0 179 -26.5t119 -76t66.5 -120t20.5 -158.5v-86q0 -193 -87 -287t-298 -94h-805q-154 0 -256 25.5t-163.5 82t-87 147.5t-25.5 224 zM420 473q0 -68 12 -109.5t45 -65.5t89.5 -31t144.5 -7h680q72 0 102.5 32t30.5 101v78q0 82 -30 112.5t-103 30.5h-971v-141z" />
<glyph unicode="7" horiz-adv-x="1851" d="M63 1126v271h1547q82 0 124 -42t42 -102q0 -74 -62 -147l-907 -1106h-399l950 1126h-1295z" />
<glyph unicode="8" horiz-adv-x="1847" d="M98 313v113q0 76 13.5 127t36 85t54 51.5t68.5 27.5q-66 18 -109.5 71.5t-43.5 176.5v104q0 88 24.5 150.5t78.5 101.5t142.5 57.5t215.5 18.5h692q125 0 213 -18.5t142 -57.5t79 -101.5t25 -150.5v-104q0 -123 -43.5 -176.5t-108.5 -71.5q37 -10 67.5 -27.5t54 -51.5 t36 -85t12.5 -127v-113q0 -84 -23.5 -143t-78 -97t-140.5 -55.5t-209 -17.5h-745q-123 0 -210 17.5t-140.5 55.5t-78 97t-24.5 143zM391 369q0 -72 45 -90.5t144 -18.5h688q96 0 142 18.5t46 90.5v82q0 86 -33.5 116.5t-119.5 30.5h-758q-86 0 -120 -30.5t-34 -116.5v-82z M410 944q0 -70 30.5 -98.5t112.5 -28.5h741q80 0 112 28.5t32 98.5v86q0 70 -45 88.5t-154 18.5h-631q-111 0 -154.5 -18.5t-43.5 -88.5v-86z" />
<glyph unicode="9" horiz-adv-x="1921" d="M90 911v103q0 96 20.5 167.5t66.5 120t120 72t180 23.5h801q154 0 256 -24.5t163.5 -79t87 -139.5t25.5 -206v-469q0 -133 -25.5 -224t-87 -147.5t-163.5 -82t-256 -25.5h-438v260h428q68 0 111.5 9.5t71.5 34t39 66.5t11 105v55h-1024q-106 0 -180 27t-120 76 t-66.5 119.5t-20.5 158.5zM401 907q0 -78 29 -109.5t105 -31.5h966v176q0 57 -8 95t-31.5 58.5t-67.5 29t-116 8.5h-743q-72 0 -103 -33t-31 -103v-90z" />
<glyph unicode=":" horiz-adv-x="552" d="M121 92v168q0 47 23.5 69.5t80.5 22.5h101q59 0 82.5 -22.5t23.5 -69.5v-168q0 -49 -23.5 -70.5t-82.5 -21.5h-101q-57 0 -80.5 21.5t-23.5 70.5zM121 829v166q0 49 23.5 72t80.5 23h101q59 0 82.5 -23t23.5 -72v-166q0 -49 -23.5 -71.5t-82.5 -22.5h-101 q-57 0 -80.5 22.5t-23.5 71.5z" />
<glyph unicode=";" horiz-adv-x="552" d="M86 -150l47 500h299l-119 -500h-227zM119 829v166q0 49 23.5 72t80.5 23h103q57 0 80.5 -23t23.5 -72v-166q0 -49 -23.5 -71.5t-80.5 -22.5h-103q-57 0 -80.5 22.5t-23.5 71.5z" />
<glyph unicode="&#x3c;" horiz-adv-x="1208" d="M121 674q0 49 25.5 79.5t66.5 53.5l874 481v-231l-710 -383l710 -387v-232l-874 484q-41 23 -66.5 52.5t-25.5 82.5z" />
<glyph unicode="=" horiz-adv-x="1208" d="M121 373v198h966v-198h-966zM121 874v201h966v-201h-966z" />
<glyph unicode="&#x3e;" horiz-adv-x="1208" d="M121 55v232l710 387l-710 383v231l874 -481q41 -23 66.5 -53.5t25.5 -79.5q0 -53 -25.5 -83t-66.5 -52z" />
<glyph unicode="?" horiz-adv-x="1218" d="M102 92v119q0 49 24 71.5t81 22.5h100q57 0 82 -22.5t25 -71.5v-119q0 -49 -24.5 -70.5t-82.5 -21.5h-100q-57 0 -81 21.5t-24 70.5zM102 424v86q0 76 17.5 132t57.5 91t106.5 52.5t165.5 17.5h299q63 0 94.5 27.5t31.5 107.5v57q0 80 -32.5 110t-104.5 30h-307v262h328 q211 0 306 -90t95 -299v-78q0 -92 -17.5 -158.5t-60.5 -110t-116.5 -63.5t-186.5 -20h-282q-53 0 -71.5 -23t-18.5 -72v-59h-304z" />
<glyph unicode="@" horiz-adv-x="1515" d="M121 -4v987q0 90 17.5 152.5t58.5 101.5t111.5 56.5t174.5 17.5h576q104 0 174 -17.5t110.5 -56.5t57 -101.5t16.5 -152.5v-530q0 -90 -17.5 -152.5t-59.5 -101.5t-112.5 -55.5t-174.5 -16.5h-113q-104 0 -174 16.5t-112 55.5t-58 101t-16 153v98q0 90 16 152.5t58 101.5 t112 56.5t174 17.5h252v96q0 76 -27.5 103.5t-113.5 27.5h-562q-78 0 -108.5 -29.5t-30.5 -105.5v-959q0 -78 32 -110.5t116 -32.5h315v-201h-330q-104 0 -174.5 17.5t-111.5 56.5t-58.5 101.5t-17.5 152.5zM807 457q0 -78 30.5 -108t114.5 -30h90q84 0 117 31t33 107v223 h-240q-84 0 -114.5 -28.5t-30.5 -106.5v-88z" />
<glyph unicode="A" horiz-adv-x="2119" d="M16 0l811 1290q37 59 88.5 98t147.5 39q94 0 145.5 -38.5t87.5 -98.5l807 -1290h-360l-203 322h-967l-198 -322h-359zM719 561h676l-338 551z" />
<glyph unicode="B" horiz-adv-x="1837" d="M119 0v1397h1177q119 0 203 -16.5t136.5 -54.5t77 -98.5t24.5 -148.5v-114q0 -123 -43 -176.5t-109 -71.5q37 -8 69 -25.5t54.5 -50.5t34.5 -85t12 -130v-123q0 -84 -23.5 -141.5t-75.5 -93t-136 -52t-203 -16.5h-1198zM430 254h870q88 0 126 23.5t38 89.5v86 q0 86 -33.5 114.5t-119.5 28.5h-881v-342zM430 821h873q82 0 112.5 26.5t30.5 96.5v88q0 63 -38 87t-136 24h-842v-322z" />
<glyph unicode="C" horiz-adv-x="1691" d="M111 479v439q0 131 25.5 223t87 148.5t163.5 82t256 25.5h969v-269h-955q-72 0 -117.5 -11t-72.5 -37.5t-37 -70.5t-10 -108v-409q0 -66 10 -109t37 -69.5t74 -37t118 -10.5h953v-266h-969q-154 0 -256 25.5t-163.5 82t-87 147.5t-25.5 224z" />
<glyph unicode="D" horiz-adv-x="1873" d="M121 0v1397h1106q156 0 259 -25.5t164.5 -82t87 -148.5t25.5 -223v-439q0 -133 -25.5 -224t-87 -147.5t-165 -82t-258.5 -25.5h-1106zM432 266h782q63 0 108.5 10.5t74 36t42 68.5t13.5 108v414q0 63 -11 107.5t-39 70t-73 36.5t-115 11h-782v-862z" />
<glyph unicode="E" horiz-adv-x="1697" d="M111 479v439q0 131 25.5 223t87 148.5t163.5 82t256 25.5h344v-264h-344q-68 0 -111 -11.5t-68.5 -36t-34.5 -65.5t-9 -102v-95h1190v-248h-1190v-98q0 -63 9 -104t33.5 -65.5t68.5 -34t112 -9.5h975v-264h-975q-154 0 -256 25.5t-163.5 82t-87 147.5t-25.5 224z" />
<glyph unicode="F" horiz-adv-x="1648" d="M115 0v918q0 131 25.5 223t87 148.5t164 82t255.5 25.5h328v-269h-320q-129 0 -180 -53t-51 -176v-111h1178v-264h-1178v-524h-309z" />
<glyph unicode="G" horiz-adv-x="1826" d="M111 479v439q0 131 25.5 223t87 148.5t163.5 82t256 25.5h365v-269h-351q-70 0 -115.5 -11t-72.5 -37.5t-38 -69.5t-11 -107v-411q0 -70 11 -114t39 -68.5t74 -34t113 -9.5h527q66 0 110.5 9.5t72.5 35t40 72.5t12 121v323h312v-348q0 -133 -26 -224t-87.5 -147.5 t-164.5 -82t-259 -25.5h-551q-154 0 -256 25.5t-163.5 82t-87 147.5t-25.5 224z" />
<glyph unicode="H" horiz-adv-x="1886" d="M121 0v1397h311v-570h1024v570h309v-1397h-309v557h-1024v-557h-311z" />
<glyph unicode="I" horiz-adv-x="559" d="M123 0v1397h311v-1397h-311z" />
<glyph unicode="J" horiz-adv-x="1048" d="M35 0v266h338q76 0 124 12.5t75.5 40t39 70.5t11.5 105v903h311v-918q0 -133 -25.5 -224t-87 -147.5t-165 -82t-259.5 -25.5h-362z" />
<glyph unicode="K" horiz-adv-x="1642" d="M121 0v1397h309v-668l762 668h420l-799 -678l821 -719h-426l-778 682v-682h-309z" />
<glyph unicode="L" horiz-adv-x="1544" d="M115 479v918h309v-905q0 -61 11 -103.5t40 -70t77 -40t122 -12.5h829v-266h-856q-154 0 -256 25.5t-163.5 82t-87 147.5t-25.5 224z" />
<glyph unicode="M" horiz-adv-x="2441" d="M119 0v1300q0 66 48 96.5t120 30.5q55 0 88 -15t59 -50l789 -1047l794 1047q27 35 56.5 50t83.5 15q72 0 119.5 -30.5t47.5 -96.5v-1300h-286v920l-682 -891q-47 -59 -137 -60q-90 0 -138 60l-680 891v-920h-282z" />
<glyph unicode="N" horiz-adv-x="1867" d="M119 0v1298q0 66 46 97.5t120 31.5q53 0 88 -14t57 -37l1026 -989v1010h295v-1299q0 -70 -43 -99.5t-113 -29.5q-49 0 -91 15.5t-79 50.5l-1017 958v-993h-289z" />
<glyph unicode="O" d="M111 479v439q0 131 25.5 223t87 148.5t163.5 82t256 25.5h531q156 0 258 -25.5t163.5 -82t87 -148.5t25.5 -223v-439q0 -133 -25.5 -224t-87 -147.5t-164 -82t-257.5 -25.5h-531q-154 0 -256 25.5t-163.5 82t-87 147.5t-25.5 224zM420 492q0 -68 9 -112t36 -69.5t73 -35 t119 -9.5h504q68 0 114 9.5t72.5 35t38 69.5t11.5 112v411q0 66 -11.5 109t-38 69.5t-72.5 36.5t-114 10h-504q-74 0 -119.5 -10t-72.5 -36.5t-36 -69.5t-9 -109v-411z" />
<glyph unicode="P" horiz-adv-x="1837" d="M121 0v1397h1118q150 0 250 -23.5t161.5 -78t87 -140.5t25.5 -209v-121q0 -125 -24.5 -206.5t-85 -131t-160.5 -69t-254 -19.5h-807v-399h-311zM432 651h803q123 0 170 38t47 149v96q0 113 -48 153.5t-173 40.5h-799v-477z" />
<glyph unicode="Q" d="M109 485v433q0 131 25.5 223t87 148.5t163.5 82t258 25.5h531q156 0 258 -25.5t163.5 -82t87 -148.5t25.5 -223v-433q0 -154 -35 -251t-125 -150l264 -285h-382l-201 215h-586q-156 0 -258 23.5t-163.5 79t-87 145.5t-25.5 223zM420 547q0 -84 7 -137.5t31.5 -84t72 -42 t126.5 -11.5h504q68 0 114 9.5t72.5 35t38 69.5t11.5 112v405q0 66 -11.5 109t-38 69.5t-72.5 36.5t-114 10h-504q-74 0 -119.5 -10t-72.5 -36.5t-36 -69.5t-9 -109v-356z" />
<glyph unicode="R" horiz-adv-x="1859" d="M119 0v1397h1093q147 0 252 -18.5t171.5 -65.5t97 -129t30.5 -207v-96q0 -121 -32.5 -200t-101 -125t-173 -64.5t-248.5 -18.5h-245l819 -473h-537l-817 508v-508h-309zM428 709h764q76 0 126 6t79.5 24.5t42 53t12.5 92.5v76q0 55 -12.5 89.5t-41 53t-79.5 25t-127 6.5 h-764v-426z" />
<glyph unicode="S" horiz-adv-x="1656" d="M80 0v264h1061q84 0 120.5 23.5t36.5 95.5v76q0 66 -36.5 93.5t-118.5 27.5h-666q-117 0 -193.5 21.5t-121.5 65.5t-62.5 110.5t-17.5 156.5v70q0 106 22.5 182t69.5 122t123 67.5t180 21.5h434v-264h-405q-72 0 -105.5 -28t-33.5 -112v-45q0 -66 30.5 -93.5t106.5 -27.5 h653q117 0 198 -19.5t132 -62.5t73.5 -110.5t22.5 -161.5v-111q0 -98 -22.5 -166.5t-73.5 -111.5t-132 -63.5t-198 -20.5h-1077z" />
<glyph unicode="T" horiz-adv-x="1564" d="M39 1128v269h1485v-269h-586v-1128h-313v1128h-586z" />
<glyph unicode="U" d="M115 479v918h313v-908q0 -66 13.5 -107.5t42 -68t76.5 -37t118 -10.5h469q70 0 118 10.5t76.5 37t42 69.5t13.5 109v905h309v-918q0 -133 -25.5 -224t-87 -147.5t-164 -82t-258.5 -25.5h-524q-154 0 -256 25.5t-163.5 82t-87 147.5t-25.5 224z" />
<glyph unicode="V" horiz-adv-x="2099" d="M14 1397h377l662 -1080l659 1080h371l-807 -1295q-39 -63 -88 -98t-141 -35t-141.5 35t-88.5 98z" />
<glyph unicode="W" horiz-adv-x="2754" d="M18 1397h347l409 -1010l416 916q31 70 72 97t116 27q76 0 119 -27.5t72 -96.5l399 -916l424 1010h340q-25 -53 -70 -155.5t-100 -228.5t-116.5 -264.5t-118 -264.5t-100.5 -227t-66 -155q-27 -59 -72 -96t-113 -37q-74 0 -121 36t-75 97l-406 902l-428 -902 q-29 -59 -77 -96t-121 -37q-76 0 -119 37t-68 96z" />
<glyph unicode="X" horiz-adv-x="2066" d="M16 0l803 723l-758 674h449l532 -496l562 496h424l-760 -672l784 -725h-453l-575 535l-573 -535h-435z" />
<glyph unicode="Y" horiz-adv-x="1972" d="M8 1397h420l563 -498l574 498h397l-823 -742v-655h-312v659z" />
<glyph unicode="Z" horiz-adv-x="1726" d="M74 137q0 78 63 133l1000 858h-1031v269h1373q66 0 100.5 -42.5t34.5 -101.5q0 -76 -60 -129l-979 -858h1076v-266h-1442q-66 0 -100.5 38t-34.5 99z" />
<glyph unicode="[" horiz-adv-x="743" d="M217 -451v2202h498v-162h-295v-1878h295v-162h-498z" />
<glyph unicode="\" horiz-adv-x="1044" d="M8 1468h244l784 -1675h-248z" />
<glyph unicode="]" horiz-adv-x="743" d="M18 -289h295v1878h-295v162h498v-2202h-498v162z" />
<glyph unicode="^" horiz-adv-x="1269" d="M57 459l437 870q23 45 53.5 71.5t85.5 26.5t87 -26.5t54 -71.5l436 -870h-245l-332 671l-332 -671h-244z" />
<glyph unicode="_" horiz-adv-x="1372" d="M-4 -82h1382v-203h-1382v203z" />
<glyph unicode="`" horiz-adv-x="819" d="M121 1702h319l258 -447h-254z" />
<glyph unicode="a" horiz-adv-x="1716" d="M94 293v104q0 70 17.5 124t60.5 92t118 57.5t189 19.5h821v25q0 106 -43 142t-145 36h-303v217h303q133 0 226.5 -24.5t152.5 -74.5t87 -127t28 -184v-270q0 -121 -23.5 -203t-82 -133t-156 -72.5t-244.5 -21.5h-600q-121 0 -199 20.5t-124 58.5t-64.5 92t-18.5 122z M397 313q0 -59 33 -81.5t92 -22.5h574q53 0 92 8t63.5 29.5t36.5 60.5t12 101v94h-788q-53 0 -84 -23.5t-31 -89.5v-76z" />
<glyph unicode="b" horiz-adv-x="1681" d="M115 479v989h305v-358h616q156 0 258.5 -25.5t164 -82t87 -148.5t25.5 -225v-150q0 -133 -25.5 -224t-87 -147.5t-164 -82t-258.5 -25.5h-389q-154 0 -256 25.5t-163.5 82t-87 147.5t-25.5 224zM420 485q0 -68 10 -111.5t37 -69t73 -36t117 -10.5h369q72 0 119 10.5 t73.5 36t37 69.5t10.5 113v131q0 72 -10.5 117t-37 69.5t-73.5 34t-119 9.5h-606v-363z" />
<glyph unicode="c" horiz-adv-x="1548" d="M111 479v150q0 133 25.5 225t87 148.5t163.5 82t256 25.5h803v-262h-793q-72 0 -118 -10.5t-72.5 -36t-36.5 -70.5t-10 -113v-131q0 -66 10 -109.5t36.5 -70t73 -38t117.5 -11.5h795v-258h-805q-154 0 -256 25.5t-163.5 82t-87 147.5t-25.5 224z" />
<glyph unicode="d" horiz-adv-x="1681" d="M109 479v150q0 133 25.5 225t87 148.5t164.5 82t259 25.5h617v358h305v-989q0 -133 -25.5 -224t-87 -147.5t-164 -82t-258.5 -25.5h-387q-156 0 -259 25.5t-164.5 82t-87 147.5t-25.5 224zM414 487q0 -74 11 -118.5t42 -69.5t83 -33t134 -8h340q72 0 118 9t72.5 35t37 70 t10.5 113v363h-580q-80 0 -132 -8.5t-83 -33t-42 -69.5t-11 -119v-131z" />
<glyph unicode="e" horiz-adv-x="1656" d="M111 422v256q0 121 23.5 204t81.5 133t154.5 72.5t243.5 22.5h537q119 0 197.5 -22.5t125 -62.5t64.5 -96.5t18 -121.5v-365h-1140v-51q0 -51 8 -81.5t29.5 -48t57.5 -24t89 -6.5h361v-231h-361q-264 0 -376.5 100.5t-112.5 321.5zM416 639h835v143q0 55 -27.5 73.5 t-97.5 18.5h-508q-57 0 -96 -5t-62.5 -23.5t-33.5 -53t-10 -94.5v-59z" />
<glyph unicode="f" horiz-adv-x="886" d="M121 0v1169q0 168 88 233.5t268 65.5h354v-217h-307q-57 0 -77.5 -19.5t-20.5 -72.5v-49h403v-248h-403v-862h-305z" />
<glyph unicode="g" horiz-adv-x="1671" d="M104 498v170q0 127 21.5 212t76 136t147.5 72.5t235 21.5h495q137 0 230.5 -24.5t150 -78t80 -137.5t23.5 -202v-648q0 -186 -92.5 -269t-301.5 -83h-452v250h424q68 0 96.5 26.5t28.5 92.5v90h-697q-127 0 -216 20.5t-144 64.5t-80 114.5t-25 171.5zM403 514 q0 -45 9.5 -73.5t31 -46t56.5 -23.5t88 -6h678v297q0 111 -43 149.5t-156 38.5h-479q-106 0 -145.5 -40t-39.5 -151v-145z" />
<glyph unicode="h" horiz-adv-x="1693" d="M121 0v1468h305v-358h616q156 0 259.5 -25.5t165 -82t87 -148.5t25.5 -225v-629h-305v618q0 70 -11.5 115t-38 70.5t-73.5 35t-117 9.5h-608v-848h-305z" />
<glyph unicode="i" horiz-adv-x="552" d="M121 0v1081h311v-1081h-311zM121 1268v118q0 49 23.5 71t80.5 22h101q59 0 82.5 -21.5t23.5 -71.5v-118q0 -49 -23.5 -71.5t-82.5 -22.5h-101q-57 0 -80.5 22.5t-23.5 71.5z" />
<glyph unicode="j" horiz-adv-x="583" d="M-115 -72h68q59 0 98 7.5t62.5 28t34 53t10.5 85.5v979h305v-989q0 -223 -115 -323.5t-381 -100.5h-82v260zM152 1268v118q0 49 24.5 71t81.5 22h100q57 0 81 -21.5t24 -71.5v-118q0 -49 -23.5 -71.5t-81.5 -22.5h-100q-57 0 -81.5 22.5t-24.5 71.5z" />
<glyph unicode="k" horiz-adv-x="1497" d="M121 0v1468h307v-872l641 514h397l-690 -535l709 -575h-412l-645 524v-524h-307z" />
<glyph unicode="l" horiz-adv-x="552" d="M121 0v1468h311v-1468h-311z" />
<glyph unicode="m" horiz-adv-x="2279" d="M115 0v713q0 102 20.5 177t67.5 124t122.5 72.5t186.5 23.5h268q84 0 144.5 -12.5t102.5 -36t67.5 -60t42.5 -86.5q29 98 109.5 146.5t244.5 48.5h276q111 0 187 -23.5t123 -72.5t67.5 -124t20.5 -177v-713h-299v668q0 104 -40 142t-128 38h-199q-68 0 -112 -9.5 t-69.5 -31t-35.5 -55t-10 -84.5v-668h-268v668q0 51 -9.5 84.5t-35 55t-70.5 31t-115 9.5h-194q-92 0 -130 -38t-38 -142v-668h-297z" />
<glyph unicode="n" horiz-adv-x="1667" d="M115 0v629q0 133 25.5 225t87 148.5t164 82t255.5 25.5h371q156 0 258 -25.5t163.5 -82t87 -148.5t25.5 -225v-629h-305v618q0 70 -11 114t-39 69.5t-76 36t-122 10.5h-331q-72 0 -120 -10.5t-77 -36t-40 -69.5t-11 -114v-618h-305z" />
<glyph unicode="o" horiz-adv-x="1658" d="M111 479v150q0 133 25.5 225t87 148.5t163.5 82t256 25.5h371q156 0 258 -25.5t163.5 -83t87 -149.5t25.5 -225v-148q0 -133 -25.5 -224t-87 -147.5t-164 -82t-257.5 -25.5h-371q-154 0 -256 25.5t-163.5 82t-87 147.5t-25.5 224zM416 487q0 -70 11 -113.5t41 -69t82 -36 t134 -10.5h289q82 0 135 10.5t83 36t41 69.5t11 113v131q0 70 -11 115t-41 70.5t-83 35t-135 9.5h-289q-82 0 -134 -9.5t-82 -35t-41 -70.5t-11 -115v-131z" />
<glyph unicode="p" horiz-adv-x="1681" d="M113 -332v961q0 133 25.5 225t87 148.5t164 82t257.5 25.5h389q156 0 258.5 -25.5t164 -82t87 -148.5t25.5 -225v-150q0 -133 -25.5 -224t-87 -147.5t-164 -82t-258.5 -25.5h-618v-332h-305zM418 260h581q80 0 131.5 7t82 32t42 70t11.5 120v132q0 74 -11.5 118.5 t-42 69.5t-83 33t-132.5 8h-340q-72 0 -118.5 -10.5t-73.5 -36t-37 -69.5t-10 -111v-363z" />
<glyph unicode="q" horiz-adv-x="1681" d="M109 479v150q0 133 25.5 225t87 148.5t164.5 82t259 25.5h387q156 0 258.5 -25.5t164 -82t87 -148.5t25.5 -225v-961h-305v332h-617q-156 0 -259 25.5t-164.5 82t-87 147.5t-25.5 224zM414 489q0 -72 10 -116.5t37.5 -69t74 -34t119.5 -9.5h607v363q0 70 -10.5 113.5 t-37 69t-72.5 35t-118 9.5h-340q-82 0 -134 -8t-83 -33t-42 -70t-11 -118v-132z" />
<glyph unicode="r" horiz-adv-x="901" d="M121 0v643q0 125 28.5 213t91 144.5t161 83t239.5 26.5h199v-248h-191q-63 0 -106 -10t-68.5 -34.5t-37 -67.5t-11.5 -109v-641h-305z" />
<glyph unicode="s" horiz-adv-x="1509" d="M96 0v240h916q61 0 85.5 20.5t24.5 77.5v37q0 61 -23.5 76.5t-78.5 15.5h-623q-94 0 -152.5 18.5t-91 55.5t-44 91t-11.5 128v84q0 72 15.5 123t50.5 82.5t94 46t150 14.5h421v-231h-348q-45 0 -64.5 -16.5t-19.5 -59.5v-51q0 -47 18.5 -63.5t59.5 -16.5h602 q106 0 174 -17.5t107 -55.5t53 -98.5t14 -148.5v-57q0 -82 -14 -138.5t-56 -91t-115 -50t-189 -15.5h-955z" />
<glyph unicode="t" horiz-adv-x="872" d="M29 862v248h155v313h312v-313h350v-248h-350v-862h-312v862h-155z" />
<glyph unicode="u" horiz-adv-x="1658" d="M115 479v631h307v-623q0 -72 13.5 -115.5t42 -68t76.5 -34t118 -9.5h319q74 0 123 9.5t77 34t39 68.5t11 115v623h303v-631q0 -133 -25.5 -224t-87 -147.5t-165 -82t-258.5 -25.5h-361q-154 0 -256 25.5t-163.5 82t-87 147.5t-25.5 224z" />
<glyph unicode="v" horiz-adv-x="1918" d="M18 1110h365l582 -850l575 850h361l-732 -1036q-35 -47 -81 -76t-127 -29q-86 0 -131.5 29t-79.5 76z" />
<glyph unicode="w" horiz-adv-x="2258" d="M20 1110h310l319 -748l318 664q29 55 64.5 85t103.5 30q66 0 102.5 -28t62.5 -87l302 -664l335 748h304l-465 -1030q-23 -47 -65 -79t-103 -32q-59 0 -101.5 32t-64.5 79l-314 684l-329 -684q-25 -51 -67 -81t-103 -30q-70 0 -106 30t-58 81z" />
<glyph unicode="x" horiz-adv-x="1540" d="M14 0l576 578l-537 532h367l360 -375l369 375h369l-555 -543l561 -567h-381l-375 401l-381 -401h-373z" />
<glyph unicode="y" horiz-adv-x="1695" d="M119 520v590h301v-578q0 -92 40 -127.5t134 -35.5h682v741h297v-1090q0 -186 -92 -269t-301 -83h-445v250h418q63 0 93 24.5t30 94.5v90h-701q-125 0 -212 23.5t-141 72.5t-78.5 123t-24.5 174z" />
<glyph unicode="z" horiz-adv-x="1435" d="M74 111q0 61 51 106l786 666h-811v227h1119q55 0 82.5 -35t27.5 -80q0 -61 -47 -102l-762 -662h842v-231h-1182q-51 0 -78.5 34t-27.5 77z" />
<glyph unicode="{" horiz-adv-x="681" d="M25 649q0 47 18 71.5t61 24.5h25q59 0 86 28t27 101v639q0 63 10 109.5t35.5 74t67.5 41t106 13.5h194v-164h-145q-35 0 -49.5 -20.5t-14.5 -67.5v-653q0 -92 -31.5 -141.5t-80.5 -55.5q49 -6 80.5 -55t31.5 -141v-652q0 -47 14.5 -67.5t49.5 -20.5h145v-164h-194 q-63 0 -105.5 13.5t-68 41t-35.5 72.5t-10 111v637q0 74 -27 100.5t-86 26.5h-25q-43 0 -61 24.5t-18 73.5z" />
<glyph unicode="|" horiz-adv-x="542" d="M168 -451v2202h205v-2202h-205z" />
<glyph unicode="}" horiz-adv-x="681" d="M25 -287h145q35 0 49 20.5t14 67.5v652q0 92 32 141t81 55q-49 6 -81 55.5t-32 141.5v653q0 47 -14 67.5t-49 20.5h-145v164h194q125 0 172 -54.5t47 -183.5v-639q0 -74 27 -101.5t86 -27.5h24q43 0 61.5 -24.5t18.5 -71.5q0 -49 -18.5 -73.5t-61.5 -24.5h-24 q-59 0 -86 -26.5t-27 -100.5v-637q0 -129 -47 -183.5t-172 -54.5h-194v164z" />
<glyph unicode="~" horiz-adv-x="1208" d="M119 586v215l217 84q31 10 51 10q16 0 35 -6l356 -123q10 -4 29 -4q12 0 35 6l245 94v-215l-217 -84q-31 -10 -51 -10q-16 0 -35 6l-356 123q-10 4 -29 4q-14 0 -34 -6z" />
<glyph unicode="&#xa1;" horiz-adv-x="581" d="M135 0zM136 0v973h309v-973h-309zM136 1186v119q0 49 23.5 70.5t80.5 21.5h100q57 0 81 -21.5t24 -70.5v-119q0 -49 -23.5 -71.5t-81.5 -22.5h-100q-57 0 -80.5 22.5t-23.5 71.5z" />
<glyph unicode="&#xa2;" horiz-adv-x="1501" d="M96 610v150q0 133 25.5 225t87 148.5t164 82t258.5 25.5h147v156h219v-156h435v-260h-435v-592h437v-258h-437v-131h-219v131h-147q-156 0 -258.5 25.5t-164 82t-87 147.5t-25.5 224zM401 618q0 -66 10.5 -109.5t37 -70t72.5 -38t118 -11.5h139v592h-139q-72 0 -118 -10 t-72.5 -37t-37 -72t-10.5 -112v-132z" />
<glyph unicode="&#xa3;" horiz-adv-x="1726" d="M51 0v260h182v658q0 131 26 223t87.5 148.5t164.5 82t261 25.5h315v-260h-315q-127 0 -176 -50.5t-49 -168.5v-101h1085v-237h-1085v-320h1093v-260h-1589z" />
<glyph unicode="&#xa4;" horiz-adv-x="1482" d="M61 133l310 309v504l-310 307l119 119l307 -309h502l307 309l125 -119l-313 -307v-504l311 -309l-123 -121l-307 314h-502l-309 -316zM547 500h385v387h-385v-387z" />
<glyph unicode="&#xa5;" horiz-adv-x="1789" d="M10 1397h379l508 -500l520 500h361l-707 -668h490v-201h-521v-139h521v-201h-521v-188h-299v188h-512v201h512v139h-512v201h482z" />
<glyph unicode="&#xa6;" horiz-adv-x="542" d="M168 -451v932h205v-932h-205zM168 819v932h205v-932h-205z" />
<glyph unicode="&#xa7;" horiz-adv-x="1505" d="M82 -221h811q109 0 155 38t46 152v125h-557q-133 0 -220.5 21.5t-139.5 69.5t-73.5 126t-21.5 191v487q0 113 21.5 190.5t73.5 126t139 70t221 21.5h438v-230h-428q-117 0 -159 -41t-42 -149v-127h557q131 0 219 -21.5t141.5 -69.5t75 -126t21.5 -191v-483 q0 -113 -21.5 -190.5t-75 -127t-141.5 -71t-219 -21.5h-821v230zM346 512q0 -57 9.5 -94t33 -57.5t61 -28.5t97.5 -8h547v108q0 111 -44 151t-157 40h-547v-111z" />
<glyph unicode="&#xa8;" horiz-adv-x="1069" d="M117 1288v92q0 53 23.5 76t82.5 23h94q59 0 82 -22.5t23 -76.5v-108q0 -53 -22.5 -75.5t-82.5 -22.5h-94q-66 0 -86 26.5t-20 87.5zM645 1272v108q0 53 22.5 76t82.5 23h94q57 0 80.5 -22.5t23.5 -76.5v-108q0 -53 -23.5 -75.5t-80.5 -22.5h-94q-59 0 -82 22.5t-23 75.5z " />
<glyph unicode="&#xaa;" horiz-adv-x="1077" d="M111 776v60q0 78 44 118.5t173 40.5h422v17q0 39 -15.5 53t-54.5 14h-170v146h170q150 0 213 -54.5t63 -175.5v-143q0 -68 -13 -113t-46 -72.5t-87 -40t-136 -12.5h-334q-135 0 -182 44t-47 118zM317 799q0 -43 48 -43h305q41 0 60.5 15t19.5 63v40h-388q-23 0 -34 -10 t-11 -39v-26z" />
<glyph unicode="&#xab;" horiz-adv-x="1183" d="M39 197zM39 670q0 68 23.5 104.5t62.5 65.5l399 301v-277l-268 -196l268 -199v-272l-399 299q-39 29 -62.5 67.5t-23.5 106.5zM631 670q0 68 23.5 104.5t62.5 65.5l399 301v-277l-268 -196l268 -199v-272l-399 299q-39 29 -62.5 67.5t-23.5 106.5z" />
<glyph unicode="&#xac;" horiz-adv-x="1181" d="M80 645v207h981v-852h-209v645h-772z" />
<glyph unicode="&#xad;" horiz-adv-x="811" d="M68 532v242h675v-242h-675z" />
<glyph unicode="&#xaf;" horiz-adv-x="1323" d="M121 1348v217h1081v-217h-1081z" />
<glyph unicode="&#xb0;" horiz-adv-x="921" d="M68 963v147q0 78 14 133t51 89t98.5 49.5t155.5 15.5h150q92 0 153.5 -15.5t98 -49.5t52 -89t15.5 -133v-147q0 -80 -15.5 -134.5t-52 -88t-98 -48t-153.5 -14.5h-150q-94 0 -155.5 14.5t-98.5 48t-51 88t-14 134.5zM266 971q0 -72 25.5 -97.5t103.5 -25.5h133 q80 0 104.5 25.5t24.5 97.5v131q0 37 -5 60.5t-19.5 36.5t-40 18.5t-64.5 5.5h-133q-39 0 -64.5 -5.5t-40 -18.5t-19.5 -36.5t-5 -60.5v-131z" />
<glyph unicode="&#xb1;" horiz-adv-x="1208" d="M121 0zM121 -30v200h966v-200h-966zM121 623v200h383v383h201v-383h382v-200h-382v-383h-201v383h-383z" />
<glyph unicode="&#xb2;" horiz-adv-x="1009" d="M78 719v237q0 100 48 144.5t177 44.5h393q31 0 42.5 10t11.5 39v12q0 29 -11.5 39t-40.5 10h-243v162h264q111 0 159 -45t48 -156v-39q0 -98 -44 -138t-165 -40h-400q-35 0 -49 -12t-14 -43v-64h672v-161h-848zM78 719z" />
<glyph unicode="&#xb3;" horiz-adv-x="995" d="M74 719v155h606q33 0 47 9.5t14 33.5v31q0 29 -13 40t-46 11h-604v139h596q33 0 45 11.5t12 35.5v33q0 23 -14.5 33t-50.5 10h-215v156h223q133 0 185 -40t52 -130v-49q0 -61 -19.5 -87t-47.5 -36q29 -10 53.5 -38t24.5 -103v-56q0 -86 -52.5 -122.5t-183.5 -36.5h-612z M74 719z" />
<glyph unicode="&#xb4;" horiz-adv-x="819" d="M121 1255l256 447h321l-325 -447h-252z" />
<glyph unicode="&#xb6;" horiz-adv-x="1789" d="M55 948v125q0 109 21.5 184.5t72 122.5t135.5 67.5t214 20.5h1171v-1800h-262v1575h-391v-1575h-264v885h-254q-129 0 -214 20.5t-135.5 67.5t-72 123t-21.5 184zM317 954q0 -51 8.5 -85.5t30 -55t58.5 -29t92 -8.5h246v467h-248q-111 0 -149 -38t-38 -140v-111z" />
<glyph unicode="&#xb7;" horiz-adv-x="552" d="M121 492zM121 584v168q0 47 23.5 69.5t80.5 22.5h101q59 0 82.5 -22.5t23.5 -69.5v-168q0 -49 -23.5 -70.5t-82.5 -21.5h-101q-57 0 -80.5 21.5t-23.5 70.5z" />
<glyph unicode="&#xb8;" horiz-adv-x="563" d="M121 -451l45 398h276l-110 -398h-211z" />
<glyph unicode="&#xb9;" horiz-adv-x="370" d="M88 719v698h193v-698h-193zM88 719z" />
<glyph unicode="&#xba;" horiz-adv-x="1044" d="M121 879v82q0 74 14.5 124t48 80.5t91 45t143.5 14.5h209q86 0 144 -14.5t92 -45t48.5 -81t14.5 -123.5v-82q0 -74 -14.5 -124t-48.5 -81t-92 -45.5t-144 -14.5h-209q-86 0 -143.5 14.5t-91 45.5t-48 81t-14.5 124zM328 887q0 -57 22.5 -76.5t87.5 -19.5h168 q66 0 89.5 19t23.5 77v63q0 59 -23.5 79t-89.5 20h-168q-66 0 -88 -19.5t-22 -79.5v-63z" />
<glyph unicode="&#xbb;" horiz-adv-x="1183" d="M39 197v272l268 199l-268 196v277l399 -301q39 -29 62.5 -66t23.5 -104q0 -68 -23.5 -107t-62.5 -67zM39 197zM631 197v272l268 199l-268 196v277l399 -301q39 -29 62.5 -66t23.5 -104q0 -68 -23.5 -107t-62.5 -67z" />
<glyph unicode="&#xbc;" horiz-adv-x="1912" d="M110 0l981 1397h238l-981 -1397h-238zM111 0zM215 719v698h193v-698h-193zM936 162v516h188v-352h494v352h188v-698h-188v182h-682z" />
<glyph unicode="&#xbd;" horiz-adv-x="1720" d="M110 0l981 1397h238l-981 -1397h-238zM111 0zM215 719v698h193v-698h-193zM766 -20v237q0 100 48 144.5t177 44.5h393q31 0 42.5 10t11.5 39v12q0 29 -11.5 39t-40.5 10h-243v162h264q111 0 159 -45t48 -156v-39q0 -98 -44 -138t-165 -40h-400q-35 0 -49 -12t-14 -43v-64 h672v-161h-848z" />
<glyph unicode="&#xbe;" horiz-adv-x="2279" d="M106 0zM107 719v155h606q33 0 47 9.5t14 33.5v31q0 29 -13 40t-46 11h-604v139h596q33 0 45 11.5t12 35.5v33q0 23 -14.5 33t-50.5 10h-215v156h223q133 0 185 -40t52 -130v-49q0 -61 -19.5 -87t-47.5 -36q29 -10 53.5 -38t24.5 -103v-56q0 -86 -52.5 -122.5 t-183.5 -36.5h-612zM497 0l981 1397h238l-981 -1397h-238zM1303 162v516h188v-352h494v352h188v-698h-188v182h-682z" />
<glyph unicode="&#xbf;" horiz-adv-x="1218" d="M61 0zM62 389v78q0 92 17.5 158.5t60.5 110t116.5 63.5t186.5 20h282q53 0 71.5 23t18.5 72v59h304v-86q0 -76 -17.5 -132t-57.5 -91t-106.5 -52.5t-165.5 -17.5h-299q-63 0 -94.5 -27.5t-31.5 -107.5v-57q0 -80 32.5 -110t104.5 -30h307v-262h-328q-211 0 -306 90 t-95 299zM807 1186v119q0 49 24.5 70.5t82.5 21.5h100q57 0 81 -21.5t24 -70.5v-119q0 -49 -24 -71.5t-81 -22.5h-100q-57 0 -82 22.5t-25 71.5z" />
<glyph unicode="&#xc0;" horiz-adv-x="2119" d="M16 0l811 1290q37 59 88.5 98t147.5 39q94 0 145.5 -38.5t87.5 -98.5l807 -1290h-360l-203 322h-967l-198 -322h-359zM16 0zM668 1989h319l258 -447h-254zM719 561h676l-338 551z" />
<glyph unicode="&#xc1;" horiz-adv-x="2119" d="M16 0l811 1290q37 59 88.5 98t147.5 39q94 0 145.5 -38.5t87.5 -98.5l807 -1290h-360l-203 322h-967l-198 -322h-359zM16 0zM719 561h676l-338 551zM873 1542l256 447h321l-325 -447h-252z" />
<glyph unicode="&#xc2;" horiz-adv-x="2119" d="M16 0l811 1290q37 59 88.5 98t147.5 39q94 0 145.5 -38.5t87.5 -98.5l807 -1290h-360l-203 322h-967l-198 -322h-359zM16 0zM533 1463l346 460q29 37 70 60.5t112 23.5q72 0 111 -23.5t67 -60.5l349 -460h-302l-231 311l-227 -311h-295zM719 561h676l-338 551z" />
<glyph unicode="&#xc3;" horiz-adv-x="2119" d="M16 0l811 1290q37 59 88.5 98t147.5 39q94 0 145.5 -38.5t87.5 -98.5l807 -1290h-360l-203 322h-967l-198 -322h-359zM16 0zM518 1635v217h1081v-217h-1081zM719 561h676l-338 551z" />
<glyph unicode="&#xc4;" horiz-adv-x="2119" d="M16 0l811 1290q37 59 88.5 98t147.5 39q94 0 145.5 -38.5t87.5 -98.5l807 -1290h-360l-203 322h-967l-198 -322h-359zM16 0zM643 1575v92q0 53 23.5 76t82.5 23h94q59 0 82 -22.5t23 -76.5v-108q0 -53 -22.5 -75.5t-82.5 -22.5h-94q-66 0 -86 26.5t-20 87.5zM719 561h676 l-338 551zM1171 1559v108q0 53 22.5 76t82.5 23h94q57 0 80.5 -22.5t23.5 -76.5v-108q0 -53 -23.5 -75.5t-80.5 -22.5h-94q-59 0 -82 22.5t-23 75.5z" />
<glyph unicode="&#xc5;" horiz-adv-x="2119" d="M16 0l811 1290q37 59 88.5 98t147.5 39q94 0 145.5 -38.5t87.5 -98.5l807 -1290h-360l-203 322h-967l-198 -322h-359zM16 0zM709 1671v115q0 61 11 103.5t40 68t77 37.5t122 12h202q74 0 122 -12t77 -37.5t40 -67.5t11 -104v-115q0 -61 -11 -103t-40 -68.5t-77 -38 t-122 -11.5h-202q-74 0 -122 11.5t-77 38t-40 68.5t-11 103zM719 561h676l-338 551zM854 1676q0 -59 24.5 -79t84.5 -20h194q57 0 81 20.5t24 78.5v104q0 57 -22.5 77.5t-82.5 20.5h-194q-57 0 -83 -20.5t-26 -77.5v-104z" />
<glyph unicode="&#xc6;" horiz-adv-x="2762" d="M16 0l795 1262q37 59 88 97t145 38h1037v-264h-561v-316h1153v-237h-1153v-156q0 -47 9 -79t33.5 -50.5t65.5 -26.5t105 -8h950v-260h-950q-127 0 -217.5 15.5t-150.5 53t-94 99t-46 154.5h-639l-195 -322h-375zM729 561h481v567h-131z" />
<glyph unicode="&#xc7;" horiz-adv-x="1691" d="M111 0zM111 479v439q0 131 25.5 223t87 148.5t163.5 82t256 25.5h969v-269h-955q-72 0 -117.5 -11t-72.5 -37.5t-37 -70.5t-10 -108v-409q0 -66 10 -109t37 -69.5t74 -37t118 -10.5h953v-266h-969q-154 0 -256 25.5t-163.5 82t-87 147.5t-25.5 224zM725 -451l45 398h276 l-110 -398h-211z" />
<glyph unicode="&#xc8;" horiz-adv-x="1697" d="M111 0zM111 479v439q0 131 25.5 223t87 148.5t163.5 82t256 25.5h344v-264h-344q-68 0 -111 -11.5t-68.5 -36t-34.5 -65.5t-9 -102v-95h1190v-248h-1190v-98q0 -63 9 -104t33.5 -65.5t68.5 -34t112 -9.5h975v-264h-975q-154 0 -256 25.5t-163.5 82t-87 147.5t-25.5 224z M457 1989h319l258 -447h-254z" />
<glyph unicode="&#xc9;" horiz-adv-x="1697" d="M111 0zM111 479v439q0 131 25.5 223t87 148.5t163.5 82t256 25.5h344v-264h-344q-68 0 -111 -11.5t-68.5 -36t-34.5 -65.5t-9 -102v-95h1190v-248h-1190v-98q0 -63 9 -104t33.5 -65.5t68.5 -34t112 -9.5h975v-264h-975q-154 0 -256 25.5t-163.5 82t-87 147.5t-25.5 224z M662 1542l256 447h321l-325 -447h-252z" />
<glyph unicode="&#xca;" horiz-adv-x="1697" d="M111 0zM111 479v439q0 131 25.5 223t87 148.5t163.5 82t256 25.5h344v-264h-344q-68 0 -111 -11.5t-68.5 -36t-34.5 -65.5t-9 -102v-95h1190v-248h-1190v-98q0 -63 9 -104t33.5 -65.5t68.5 -34t112 -9.5h975v-264h-975q-154 0 -256 25.5t-163.5 82t-87 147.5t-25.5 224z M383 1463l346 460q29 37 70 60.5t112 23.5q72 0 111 -23.5t67 -60.5l349 -460h-302l-231 311l-227 -311h-295z" />
<glyph unicode="&#xcb;" horiz-adv-x="1697" d="M111 0zM111 479v439q0 131 25.5 223t87 148.5t163.5 82t256 25.5h344v-264h-344q-68 0 -111 -11.5t-68.5 -36t-34.5 -65.5t-9 -102v-95h1190v-248h-1190v-98q0 -63 9 -104t33.5 -65.5t68.5 -34t112 -9.5h975v-264h-975q-154 0 -256 25.5t-163.5 82t-87 147.5t-25.5 224z M494 1575v92q0 53 23.5 76t82.5 23h94q59 0 82 -22.5t23 -76.5v-108q0 -53 -22.5 -75.5t-82.5 -22.5h-94q-66 0 -86 26.5t-20 87.5zM1022 1559v108q0 53 22.5 76t82.5 23h94q57 0 80.5 -22.5t23.5 -76.5v-108q0 -53 -23.5 -75.5t-80.5 -22.5h-94q-59 0 -82 22.5t-23 75.5z " />
<glyph unicode="&#xcc;" horiz-adv-x="559" d="M-108 1989h319l258 -447h-254zM0 0zM123 0v1397h311v-1397h-311z" />
<glyph unicode="&#xcd;" horiz-adv-x="559" d="M96 0zM96 1542l256 447h321l-325 -447h-252zM123 0v1397h311v-1397h-311z" />
<glyph unicode="&#xce;" horiz-adv-x="559" d="M-246 1463l346 460q29 37 70 60.5t112 23.5q72 0 111 -23.5t67 -60.5l349 -460h-302l-231 311l-227 -311h-295zM0 0zM123 0v1397h311v-1397h-311z" />
<glyph unicode="&#xcf;" horiz-adv-x="559" d="M-133 1575v92q0 53 23.5 76t82.5 23h94q59 0 82 -22.5t23 -76.5v-108q0 -53 -22.5 -75.5t-82.5 -22.5h-94q-66 0 -86 26.5t-20 87.5zM0 0zM123 0v1397h311v-1397h-311zM395 1559v108q0 53 22.5 76t82.5 23h94q57 0 80.5 -22.5t23.5 -76.5v-108q0 -53 -23.5 -75.5 t-80.5 -22.5h-94q-59 0 -82 22.5t-23 75.5z" />
<glyph unicode="&#xd0;" horiz-adv-x="1927" d="M8 580v237h166v580h1106q156 0 259 -25.5t164.5 -82t87.5 -148.5t26 -223v-439q0 -133 -26 -224t-87.5 -147.5t-164.5 -82t-259 -25.5h-1106v580h-166zM485 258h783q125 0 181 47t56 180v424q0 66 -11 110t-39 69.5t-73 37t-114 11.5h-783v-326h576v-225h-576v-328z" />
<glyph unicode="&#xd1;" horiz-adv-x="1867" d="M119 0v1298q0 66 46 97.5t120 31.5q53 0 88 -14t57 -37l1026 -989v1010h295v-1299q0 -70 -43 -99.5t-113 -29.5q-49 0 -91 15.5t-79 50.5l-1017 958v-993h-289zM119 0zM393 1635v217h1081v-217h-1081z" />
<glyph unicode="&#xd2;" d="M111 0zM111 479v439q0 131 25.5 223t87 148.5t163.5 82t256 25.5h531q156 0 258 -25.5t163.5 -82t87 -148.5t25.5 -223v-439q0 -133 -25.5 -224t-87 -147.5t-164 -82t-257.5 -25.5h-531q-154 0 -256 25.5t-163.5 82t-87 147.5t-25.5 224zM420 492q0 -68 9 -112t36 -69.5 t73 -35t119 -9.5h504q68 0 114 9.5t72.5 35t38 69.5t11.5 112v411q0 66 -11.5 109t-38 69.5t-72.5 36.5t-114 10h-504q-74 0 -119.5 -10t-72.5 -36.5t-36 -69.5t-9 -109v-411zM518 1989h319l258 -447h-254z" />
<glyph unicode="&#xd3;" d="M111 0zM111 479v439q0 131 25.5 223t87 148.5t163.5 82t256 25.5h531q156 0 258 -25.5t163.5 -82t87 -148.5t25.5 -223v-439q0 -133 -25.5 -224t-87 -147.5t-164 -82t-257.5 -25.5h-531q-154 0 -256 25.5t-163.5 82t-87 147.5t-25.5 224zM420 492q0 -68 9 -112t36 -69.5 t73 -35t119 -9.5h504q68 0 114 9.5t72.5 35t38 69.5t11.5 112v411q0 66 -11.5 109t-38 69.5t-72.5 36.5t-114 10h-504q-74 0 -119.5 -10t-72.5 -36.5t-36 -69.5t-9 -109v-411zM723 1542l256 447h321l-325 -447h-252z" />
<glyph unicode="&#xd4;" d="M111 0zM111 479v439q0 131 25.5 223t87 148.5t163.5 82t256 25.5h531q156 0 258 -25.5t163.5 -82t87 -148.5t25.5 -223v-439q0 -133 -25.5 -224t-87 -147.5t-164 -82t-257.5 -25.5h-531q-154 0 -256 25.5t-163.5 82t-87 147.5t-25.5 224zM381 1463l346 460q29 37 70 60.5 t112 23.5q72 0 111 -23.5t67 -60.5l349 -460h-302l-231 311l-227 -311h-295zM420 492q0 -68 9 -112t36 -69.5t73 -35t119 -9.5h504q68 0 114 9.5t72.5 35t38 69.5t11.5 112v411q0 66 -11.5 109t-38 69.5t-72.5 36.5t-114 10h-504q-74 0 -119.5 -10t-72.5 -36.5t-36 -69.5 t-9 -109v-411z" />
<glyph unicode="&#xd5;" d="M111 0zM111 479v439q0 131 25.5 223t87 148.5t163.5 82t256 25.5h531q156 0 258 -25.5t163.5 -82t87 -148.5t25.5 -223v-439q0 -133 -25.5 -224t-87 -147.5t-164 -82t-257.5 -25.5h-531q-154 0 -256 25.5t-163.5 82t-87 147.5t-25.5 224zM369 1635v217h1081v-217h-1081z M420 492q0 -68 9 -112t36 -69.5t73 -35t119 -9.5h504q68 0 114 9.5t72.5 35t38 69.5t11.5 112v411q0 66 -11.5 109t-38 69.5t-72.5 36.5t-114 10h-504q-74 0 -119.5 -10t-72.5 -36.5t-36 -69.5t-9 -109v-411z" />
<glyph unicode="&#xd6;" d="M111 0zM111 479v439q0 131 25.5 223t87 148.5t163.5 82t256 25.5h531q156 0 258 -25.5t163.5 -82t87 -148.5t25.5 -223v-439q0 -133 -25.5 -224t-87 -147.5t-164 -82t-257.5 -25.5h-531q-154 0 -256 25.5t-163.5 82t-87 147.5t-25.5 224zM420 492q0 -68 9 -112t36 -69.5 t73 -35t119 -9.5h504q68 0 114 9.5t72.5 35t38 69.5t11.5 112v411q0 66 -11.5 109t-38 69.5t-72.5 36.5t-114 10h-504q-74 0 -119.5 -10t-72.5 -36.5t-36 -69.5t-9 -109v-411zM494 1575v92q0 53 23.5 76t82.5 23h94q59 0 82 -22.5t23 -76.5v-108q0 -53 -22.5 -75.5 t-82.5 -22.5h-94q-66 0 -86 26.5t-20 87.5zM1022 1559v108q0 53 22.5 76t82.5 23h94q57 0 80.5 -22.5t23.5 -76.5v-108q0 -53 -23.5 -75.5t-80.5 -22.5h-94q-59 0 -82 22.5t-23 75.5z" />
<glyph unicode="&#xd7;" horiz-adv-x="1208" d="M190 453l273 270l-273 270l144 144l270 -273l270 273l144 -144l-273 -270l273 -270l-144 -144l-270 273l-270 -273z" />
<glyph unicode="&#xd8;" d="M109 -188l180 247q-100 53 -139 153.5t-39 266.5v439q0 131 25.5 223t87 148.5t163.5 82t256 25.5h531q23 0 42 -1t39 -1l140 190h313l-180 -250q100 -51 140 -152.5t40 -264.5v-439q0 -133 -25.5 -224t-87 -147.5t-164 -82t-257.5 -25.5h-531h-43t-41 2l-137 -190h-313z M420 492q0 -72 10 -116t39 -69l594 821h-406q-74 0 -119.5 -10t-72.5 -36.5t-36 -69.5t-9 -109v-411zM752 266h409q68 0 114 9.5t72.5 35t38 69.5t11.5 112v411q0 66 -12.5 110t-41.5 70z" />
<glyph unicode="&#xd9;" d="M115 0zM115 479v918h313v-908q0 -66 13.5 -107.5t42 -68t76.5 -37t118 -10.5h469q70 0 118 10.5t76.5 37t42 69.5t13.5 109v905h309v-918q0 -133 -25.5 -224t-87 -147.5t-164 -82t-258.5 -25.5h-524q-154 0 -256 25.5t-163.5 82t-87 147.5t-25.5 224zM518 1989h319 l258 -447h-254z" />
<glyph unicode="&#xda;" d="M115 0zM115 479v918h313v-908q0 -66 13.5 -107.5t42 -68t76.5 -37t118 -10.5h469q70 0 118 10.5t76.5 37t42 69.5t13.5 109v905h309v-918q0 -133 -25.5 -224t-87 -147.5t-164 -82t-258.5 -25.5h-524q-154 0 -256 25.5t-163.5 82t-87 147.5t-25.5 224zM723 1542l256 447 h321l-325 -447h-252z" />
<glyph unicode="&#xdb;" d="M115 0zM115 479v918h313v-908q0 -66 13.5 -107.5t42 -68t76.5 -37t118 -10.5h469q70 0 118 10.5t76.5 37t42 69.5t13.5 109v905h309v-918q0 -133 -25.5 -224t-87 -147.5t-164 -82t-258.5 -25.5h-524q-154 0 -256 25.5t-163.5 82t-87 147.5t-25.5 224zM381 1463l346 460 q29 37 70 60.5t112 23.5q72 0 111 -23.5t67 -60.5l349 -460h-302l-231 311l-227 -311h-295z" />
<glyph unicode="&#xdc;" d="M115 0zM115 479v918h313v-908q0 -66 13.5 -107.5t42 -68t76.5 -37t118 -10.5h469q70 0 118 10.5t76.5 37t42 69.5t13.5 109v905h309v-918q0 -133 -25.5 -224t-87 -147.5t-164 -82t-258.5 -25.5h-524q-154 0 -256 25.5t-163.5 82t-87 147.5t-25.5 224zM494 1575v92 q0 53 23.5 76t82.5 23h94q59 0 82 -22.5t23 -76.5v-108q0 -53 -22.5 -75.5t-82.5 -22.5h-94q-66 0 -86 26.5t-20 87.5zM1022 1559v108q0 53 22.5 76t82.5 23h94q57 0 80.5 -22.5t23.5 -76.5v-108q0 -53 -23.5 -75.5t-80.5 -22.5h-94q-59 0 -82 22.5t-23 75.5z" />
<glyph unicode="&#xdd;" horiz-adv-x="1972" d="M8 0zM8 1397h420l563 -498l574 498h397l-823 -742v-655h-312v659zM799 1542l256 447h321l-325 -447h-252z" />
<glyph unicode="&#xde;" horiz-adv-x="1826" d="M121 0v1397h311v-205h797q156 0 258 -19.5t163.5 -68.5t87 -133t25.5 -215v-117q0 -131 -25.5 -215t-87 -133t-164 -68.5t-257.5 -19.5h-797v-203h-311zM432 453h791q70 0 114.5 8t70.5 30.5t35 61.5t9 98v88q0 61 -9 100.5t-35 62t-71 30.5t-114 8h-791v-487z" />
<glyph unicode="&#xdf;" horiz-adv-x="1939" d="M121 0v1157q0 178 88 244.5t264 66.5h344q88 0 150.5 -15t101.5 -52t56.5 -96.5t17.5 -147.5v-147q0 -35 16.5 -49.5t57.5 -14.5h188q127 0 214 -17.5t139 -60.5t74.5 -117.5t22.5 -187.5v-117q0 -117 -23.5 -200.5t-83.5 -139t-163.5 -81t-261.5 -25.5h-616v258h618 q70 0 114 10.5t69.5 33t34.5 58t9 86.5v119q0 90 -36.5 124t-108.5 34h-297q-133 0 -192.5 57.5t-59.5 159.5v197q0 59 -24.5 81.5t-73.5 22.5h-236q-51 0 -74.5 -22.5t-23.5 -81.5v-1137h-305z" />
<glyph unicode="&#xe0;" horiz-adv-x="1716" d="M94 0zM94 293v104q0 70 17.5 124t60.5 92t118 57.5t189 19.5h821v25q0 106 -43 142t-145 36h-303v217h303q133 0 226.5 -24.5t152.5 -74.5t87 -127t28 -184v-270q0 -121 -23.5 -203t-82 -133t-156 -72.5t-244.5 -21.5h-600q-121 0 -199 20.5t-124 58.5t-64.5 92 t-18.5 122zM397 313q0 -59 33 -81.5t92 -22.5h574q53 0 92 8t63.5 29.5t36.5 60.5t12 101v94h-788q-53 0 -84 -23.5t-31 -89.5v-76zM529 1702h319l258 -447h-254z" />
<glyph unicode="&#xe1;" horiz-adv-x="1716" d="M94 0zM94 293v104q0 70 17.5 124t60.5 92t118 57.5t189 19.5h821v25q0 106 -43 142t-145 36h-303v217h303q133 0 226.5 -24.5t152.5 -74.5t87 -127t28 -184v-270q0 -121 -23.5 -203t-82 -133t-156 -72.5t-244.5 -21.5h-600q-121 0 -199 20.5t-124 58.5t-64.5 92 t-18.5 122zM397 313q0 -59 33 -81.5t92 -22.5h574q53 0 92 8t63.5 29.5t36.5 60.5t12 101v94h-788q-53 0 -84 -23.5t-31 -89.5v-76zM733 1255l256 447h321l-325 -447h-252z" />
<glyph unicode="&#xe2;" horiz-adv-x="1716" d="M94 0zM94 293v104q0 70 17.5 124t60.5 92t118 57.5t189 19.5h821v25q0 106 -43 142t-145 36h-303v217h303q133 0 226.5 -24.5t152.5 -74.5t87 -127t28 -184v-270q0 -121 -23.5 -203t-82 -133t-156 -72.5t-244.5 -21.5h-600q-121 0 -199 20.5t-124 58.5t-64.5 92 t-18.5 122zM391 1176l346 460q29 37 70 60.5t112 23.5q72 0 111 -23.5t67 -60.5l349 -460h-302l-231 311l-227 -311h-295zM397 313q0 -59 33 -81.5t92 -22.5h574q53 0 92 8t63.5 29.5t36.5 60.5t12 101v94h-788q-53 0 -84 -23.5t-31 -89.5v-76z" />
<glyph unicode="&#xe3;" horiz-adv-x="1716" d="M94 0zM94 293v104q0 70 17.5 124t60.5 92t118 57.5t189 19.5h821v25q0 106 -43 142t-145 36h-303v217h303q133 0 226.5 -24.5t152.5 -74.5t87 -127t28 -184v-270q0 -121 -23.5 -203t-82 -133t-156 -72.5t-244.5 -21.5h-600q-121 0 -199 20.5t-124 58.5t-64.5 92 t-18.5 122zM379 1348v217h1081v-217h-1081zM397 313q0 -59 33 -81.5t92 -22.5h574q53 0 92 8t63.5 29.5t36.5 60.5t12 101v94h-788q-53 0 -84 -23.5t-31 -89.5v-76z" />
<glyph unicode="&#xe4;" horiz-adv-x="1716" d="M94 0zM94 293v104q0 70 17.5 124t60.5 92t118 57.5t189 19.5h821v25q0 106 -43 142t-145 36h-303v217h303q133 0 226.5 -24.5t152.5 -74.5t87 -127t28 -184v-270q0 -121 -23.5 -203t-82 -133t-156 -72.5t-244.5 -21.5h-600q-121 0 -199 20.5t-124 58.5t-64.5 92 t-18.5 122zM397 313q0 -59 33 -81.5t92 -22.5h574q53 0 92 8t63.5 29.5t36.5 60.5t12 101v94h-788q-53 0 -84 -23.5t-31 -89.5v-76zM504 1288v92q0 53 23.5 76t82.5 23h94q59 0 82 -22.5t23 -76.5v-108q0 -53 -22.5 -75.5t-82.5 -22.5h-94q-66 0 -86 26.5t-20 87.5z M1032 1272v108q0 53 22.5 76t82.5 23h94q57 0 80.5 -22.5t23.5 -76.5v-108q0 -53 -23.5 -75.5t-80.5 -22.5h-94q-59 0 -82 22.5t-23 75.5z" />
<glyph unicode="&#xe5;" horiz-adv-x="1716" d="M94 0zM94 293v104q0 70 17.5 124t60.5 92t118 57.5t189 19.5h821v25q0 106 -43 142t-145 36h-303v217h303q133 0 226.5 -24.5t152.5 -74.5t87 -127t28 -184v-270q0 -121 -23.5 -203t-82 -133t-156 -72.5t-244.5 -21.5h-600q-121 0 -199 20.5t-124 58.5t-64.5 92 t-18.5 122zM397 313q0 -59 33 -81.5t92 -22.5h574q53 0 92 8t63.5 29.5t36.5 60.5t12 101v94h-788q-53 0 -84 -23.5t-31 -89.5v-76zM567 1384v115q0 61 11 103.5t40 68t77 37.5t122 12h202q74 0 122 -12t77 -37.5t40 -67.5t11 -104v-115q0 -61 -11 -103t-40 -68.5t-77 -38 t-122 -11.5h-202q-74 0 -122 11.5t-77 38t-40 68.5t-11 103zM712 1389q0 -59 24.5 -79t84.5 -20h194q57 0 81 20.5t24 78.5v104q0 57 -22.5 77.5t-82.5 20.5h-194q-57 0 -83 -20.5t-26 -77.5v-104z" />
<glyph unicode="&#xe6;" horiz-adv-x="2807" d="M94 293v104q0 70 17.5 124t60.5 92t118 57.5t189 19.5h801v25q0 106 -43 142t-143 36h-291v217h291q217 0 331 -72q111 72 359 72h518q119 0 197.5 -22.5t125 -62.5t64.5 -96.5t18 -121.5v-365h-1122v-51q0 -51 8.5 -81.5t30 -48t57 -24t91.5 -6.5h346v-231h-346 q-111 0 -193 16.5t-139 53.5q-57 -37 -145.5 -53.5t-213.5 -16.5h-581q-121 0 -199 20.5t-124 58.5t-64.5 92t-18.5 122zM397 313q0 -59 33 -81.5t92 -22.5h553q53 0 92 8t63.5 29.5t37 60.5t12.5 101v94h-768q-53 0 -84 -23.5t-31 -89.5v-76zM1585 639h817v143 q0 55 -27.5 73.5t-97.5 18.5h-487q-57 0 -96 -5t-63.5 -23.5t-35 -53t-10.5 -94.5v-59z" />
<glyph unicode="&#xe7;" horiz-adv-x="1548" d="M111 0zM111 479v150q0 133 25.5 225t87 148.5t163.5 82t256 25.5h803v-262h-793q-72 0 -118 -10.5t-72.5 -36t-36.5 -70.5t-10 -113v-131q0 -66 10 -109.5t36.5 -70t73 -38t117.5 -11.5h795v-258h-805q-154 0 -256 25.5t-163.5 82t-87 147.5t-25.5 224zM633 -451l45 398 h276l-110 -398h-211z" />
<glyph unicode="&#xe8;" horiz-adv-x="1656" d="M111 0zM111 422v256q0 121 23.5 204t81.5 133t154.5 72.5t243.5 22.5h537q119 0 197.5 -22.5t125 -62.5t64.5 -96.5t18 -121.5v-365h-1140v-51q0 -51 8 -81.5t29.5 -48t57.5 -24t89 -6.5h361v-231h-361q-264 0 -376.5 100.5t-112.5 321.5zM416 639h835v143 q0 55 -27.5 73.5t-97.5 18.5h-508q-57 0 -96 -5t-62.5 -23.5t-33.5 -53t-10 -94.5v-59zM436 1702h319l258 -447h-254z" />
<glyph unicode="&#xe9;" horiz-adv-x="1656" d="M111 0zM111 422v256q0 121 23.5 204t81.5 133t154.5 72.5t243.5 22.5h537q119 0 197.5 -22.5t125 -62.5t64.5 -96.5t18 -121.5v-365h-1140v-51q0 -51 8 -81.5t29.5 -48t57.5 -24t89 -6.5h361v-231h-361q-264 0 -376.5 100.5t-112.5 321.5zM416 639h835v143 q0 55 -27.5 73.5t-97.5 18.5h-508q-57 0 -96 -5t-62.5 -23.5t-33.5 -53t-10 -94.5v-59zM641 1255l256 447h321l-325 -447h-252z" />
<glyph unicode="&#xea;" horiz-adv-x="1656" d="M111 0zM111 422v256q0 121 23.5 204t81.5 133t154.5 72.5t243.5 22.5h537q119 0 197.5 -22.5t125 -62.5t64.5 -96.5t18 -121.5v-365h-1140v-51q0 -51 8 -81.5t29.5 -48t57.5 -24t89 -6.5h361v-231h-361q-264 0 -376.5 100.5t-112.5 321.5zM301 1176l346 460 q29 37 70 60.5t112 23.5q72 0 111 -23.5t67 -60.5l349 -460h-302l-231 311l-227 -311h-295zM416 639h835v143q0 55 -27.5 73.5t-97.5 18.5h-508q-57 0 -96 -5t-62.5 -23.5t-33.5 -53t-10 -94.5v-59z" />
<glyph unicode="&#xeb;" horiz-adv-x="1656" d="M111 0zM111 422v256q0 121 23.5 204t81.5 133t154.5 72.5t243.5 22.5h537q119 0 197.5 -22.5t125 -62.5t64.5 -96.5t18 -121.5v-365h-1140v-51q0 -51 8 -81.5t29.5 -48t57.5 -24t89 -6.5h361v-231h-361q-264 0 -376.5 100.5t-112.5 321.5zM412 1288v92q0 53 23.5 76 t82.5 23h94q59 0 82 -22.5t23 -76.5v-108q0 -53 -22.5 -75.5t-82.5 -22.5h-94q-66 0 -86 26.5t-20 87.5zM416 639h835v143q0 55 -27.5 73.5t-97.5 18.5h-508q-57 0 -96 -5t-62.5 -23.5t-33.5 -53t-10 -94.5v-59zM940 1272v108q0 53 22.5 76t82.5 23h94q57 0 80.5 -22.5 t23.5 -76.5v-108q0 -53 -23.5 -75.5t-80.5 -22.5h-94q-59 0 -82 22.5t-23 75.5z" />
<glyph unicode="&#xec;" horiz-adv-x="552" d="M-112 1702h319l258 -447h-254zM0 0zM121 0v1081h311v-1081h-311z" />
<glyph unicode="&#xed;" horiz-adv-x="552" d="M92 0zM92 1255l256 447h321l-325 -447h-252zM121 0v1081h311v-1081h-311z" />
<glyph unicode="&#xee;" horiz-adv-x="843" d="M-102 1176l346 460q29 37 70 60.5t112 23.5q72 0 111 -23.5t67 -60.5l349 -460h-302l-231 311l-227 -311h-295zM0 0zM266 0v1081h311v-1081h-311z" />
<glyph unicode="&#xef;" horiz-adv-x="643" d="M-92 1288v92q0 53 23.5 76t82.5 23h94q59 0 82 -22.5t23 -76.5v-108q0 -53 -22.5 -75.5t-82.5 -22.5h-94q-66 0 -86 26.5t-20 87.5zM0 0zM166 0v1081h311v-1081h-311zM436 1272v108q0 53 22.5 76t82.5 23h94q57 0 80.5 -22.5t23.5 -76.5v-108q0 -53 -23.5 -75.5 t-80.5 -22.5h-94q-59 0 -82 22.5t-23 75.5z" />
<glyph unicode="&#xf0;" horiz-adv-x="1685" d="M113 473v64q0 123 25.5 208.5t87 140t164 79t255.5 24.5h619v250h-783v229h875l133 152h305l-225 -264v-877q0 -133 -25.5 -224t-87 -147.5t-164 -82t-258.5 -25.5h-389q-154 0 -256 24.5t-163.5 80t-87 145.5t-25.5 223zM418 487q0 -70 11 -115.5t38 -72.5t73 -37 t115 -10h369q66 0 111 11t73.5 38t42 71t13.5 111v267h-609q-70 0 -115.5 -10.5t-72.5 -37t-38 -69.5t-11 -111v-35z" />
<glyph unicode="&#xf1;" horiz-adv-x="1667" d="M115 0v629q0 133 25.5 225t87 148.5t164 82t255.5 25.5h371q156 0 258 -25.5t163.5 -82t87 -148.5t25.5 -225v-629h-305v618q0 70 -11 114t-39 69.5t-76 36t-122 10.5h-331q-72 0 -120 -10.5t-77 -36t-40 -69.5t-11 -114v-618h-305zM115 0zM293 1348v217h1081v-217h-1081 z" />
<glyph unicode="&#xf2;" horiz-adv-x="1658" d="M111 0zM111 479v150q0 133 25.5 225t87 148.5t163.5 82t256 25.5h371q156 0 258 -25.5t163.5 -83t87 -149.5t25.5 -225v-148q0 -133 -25.5 -224t-87 -147.5t-164 -82t-257.5 -25.5h-371q-154 0 -256 25.5t-163.5 82t-87 147.5t-25.5 224zM416 487q0 -70 11 -113.5t41 -69 t82 -36t134 -10.5h289q82 0 135 10.5t83 36t41 69.5t11 113v131q0 70 -11 115t-41 70.5t-83 35t-135 9.5h-289q-82 0 -134 -9.5t-82 -35t-41 -70.5t-11 -115v-131zM438 1702h319l258 -447h-254z" />
<glyph unicode="&#xf3;" horiz-adv-x="1658" d="M111 0zM111 479v150q0 133 25.5 225t87 148.5t163.5 82t256 25.5h371q156 0 258 -25.5t163.5 -83t87 -149.5t25.5 -225v-148q0 -133 -25.5 -224t-87 -147.5t-164 -82t-257.5 -25.5h-371q-154 0 -256 25.5t-163.5 82t-87 147.5t-25.5 224zM416 487q0 -70 11 -113.5t41 -69 t82 -36t134 -10.5h289q82 0 135 10.5t83 36t41 69.5t11 113v131q0 70 -11 115t-41 70.5t-83 35t-135 9.5h-289q-82 0 -134 -9.5t-82 -35t-41 -70.5t-11 -115v-131zM643 1255l256 447h321l-325 -447h-252z" />
<glyph unicode="&#xf4;" horiz-adv-x="1658" d="M111 0zM111 479v150q0 133 25.5 225t87 148.5t163.5 82t256 25.5h371q156 0 258 -25.5t163.5 -83t87 -149.5t25.5 -225v-148q0 -133 -25.5 -224t-87 -147.5t-164 -82t-257.5 -25.5h-371q-154 0 -256 25.5t-163.5 82t-87 147.5t-25.5 224zM301 1176l346 460q29 37 70 60.5 t112 23.5q72 0 111 -23.5t67 -60.5l349 -460h-302l-231 311l-227 -311h-295zM416 487q0 -70 11 -113.5t41 -69t82 -36t134 -10.5h289q82 0 135 10.5t83 36t41 69.5t11 113v131q0 70 -11 115t-41 70.5t-83 35t-135 9.5h-289q-82 0 -134 -9.5t-82 -35t-41 -70.5t-11 -115v-131 z" />
<glyph unicode="&#xf5;" horiz-adv-x="1658" d="M111 0zM111 479v150q0 133 25.5 225t87 148.5t163.5 82t256 25.5h371q156 0 258 -25.5t163.5 -83t87 -149.5t25.5 -225v-148q0 -133 -25.5 -224t-87 -147.5t-164 -82t-257.5 -25.5h-371q-154 0 -256 25.5t-163.5 82t-87 147.5t-25.5 224zM289 1348v217h1081v-217h-1081z M416 487q0 -70 11 -113.5t41 -69t82 -36t134 -10.5h289q82 0 135 10.5t83 36t41 69.5t11 113v131q0 70 -11 115t-41 70.5t-83 35t-135 9.5h-289q-82 0 -134 -9.5t-82 -35t-41 -70.5t-11 -115v-131z" />
<glyph unicode="&#xf6;" horiz-adv-x="1658" d="M111 0zM111 479v150q0 133 25.5 225t87 148.5t163.5 82t256 25.5h371q156 0 258 -25.5t163.5 -83t87 -149.5t25.5 -225v-148q0 -133 -25.5 -224t-87 -147.5t-164 -82t-257.5 -25.5h-371q-154 0 -256 25.5t-163.5 82t-87 147.5t-25.5 224zM414 1288v92q0 53 23.5 76 t82.5 23h94q59 0 82 -22.5t23 -76.5v-108q0 -53 -22.5 -75.5t-82.5 -22.5h-94q-66 0 -86 26.5t-20 87.5zM416 487q0 -70 11 -113.5t41 -69t82 -36t134 -10.5h289q82 0 135 10.5t83 36t41 69.5t11 113v131q0 70 -11 115t-41 70.5t-83 35t-135 9.5h-289q-82 0 -134 -9.5 t-82 -35t-41 -70.5t-11 -115v-131zM942 1272v108q0 53 22.5 76t82.5 23h94q57 0 80.5 -22.5t23.5 -76.5v-108q0 -53 -23.5 -75.5t-80.5 -22.5h-94q-59 0 -82 22.5t-23 75.5z" />
<glyph unicode="&#xf7;" horiz-adv-x="1208" d="M121 168zM121 623v200h966v-200h-966zM449 260v168q0 47 23.5 69.5t80.5 22.5h101q59 0 82.5 -22.5t23.5 -69.5v-168q0 -49 -23.5 -70.5t-82.5 -21.5h-101q-57 0 -80.5 21.5t-23.5 70.5zM449 1018v168q0 47 23.5 69.5t80.5 22.5h101q59 0 82.5 -22.5t23.5 -69.5v-168 q0 -49 -23.5 -70.5t-82.5 -21.5h-101q-57 0 -80.5 21.5t-23.5 70.5z" />
<glyph unicode="&#xf8;" horiz-adv-x="1658" d="M109 -188l186 245q-104 51 -144 153.5t-40 268.5v150q0 133 25.5 225t87 148.5t163.5 82t256 25.5h371q20 0 39.5 -1t38.5 -1l143 190h311l-186 -245q104 -51 146 -153.5t42 -272.5v-148q0 -133 -25.5 -224t-87 -147.5t-164 -82t-257.5 -25.5h-371h-41t-37 2l-143 -190 h-313zM416 487q0 -74 13 -118.5t48 -71.5l416 551h-209q-82 0 -134 -9.5t-82 -35t-41 -70.5t-11 -115v-131zM758 258h215q82 0 135 10.5t83 36t41 69.5t11 113v131q0 78 -13 124t-52 71z" />
<glyph unicode="&#xf9;" horiz-adv-x="1658" d="M115 0zM115 479v631h307v-623q0 -72 13.5 -115.5t42 -68t76.5 -34t118 -9.5h319q74 0 123 9.5t77 34t39 68.5t11 115v623h303v-631q0 -133 -25.5 -224t-87 -147.5t-165 -82t-258.5 -25.5h-361q-154 0 -256 25.5t-163.5 82t-87 147.5t-25.5 224zM438 1702h319l258 -447 h-254z" />
<glyph unicode="&#xfa;" horiz-adv-x="1658" d="M115 0zM115 479v631h307v-623q0 -72 13.5 -115.5t42 -68t76.5 -34t118 -9.5h319q74 0 123 9.5t77 34t39 68.5t11 115v623h303v-631q0 -133 -25.5 -224t-87 -147.5t-165 -82t-258.5 -25.5h-361q-154 0 -256 25.5t-163.5 82t-87 147.5t-25.5 224zM643 1255l256 447h321 l-325 -447h-252z" />
<glyph unicode="&#xfb;" horiz-adv-x="1658" d="M115 0zM115 479v631h307v-623q0 -72 13.5 -115.5t42 -68t76.5 -34t118 -9.5h319q74 0 123 9.5t77 34t39 68.5t11 115v623h303v-631q0 -133 -25.5 -224t-87 -147.5t-165 -82t-258.5 -25.5h-361q-154 0 -256 25.5t-163.5 82t-87 147.5t-25.5 224zM301 1176l346 460 q29 37 70 60.5t112 23.5q72 0 111 -23.5t67 -60.5l349 -460h-302l-231 311l-227 -311h-295z" />
<glyph unicode="&#xfc;" horiz-adv-x="1658" d="M115 0zM115 479v631h307v-623q0 -72 13.5 -115.5t42 -68t76.5 -34t118 -9.5h319q74 0 123 9.5t77 34t39 68.5t11 115v623h303v-631q0 -133 -25.5 -224t-87 -147.5t-165 -82t-258.5 -25.5h-361q-154 0 -256 25.5t-163.5 82t-87 147.5t-25.5 224zM414 1288v92q0 53 23.5 76 t82.5 23h94q59 0 82 -22.5t23 -76.5v-108q0 -53 -22.5 -75.5t-82.5 -22.5h-94q-66 0 -86 26.5t-20 87.5zM942 1272v108q0 53 22.5 76t82.5 23h94q57 0 80.5 -22.5t23.5 -76.5v-108q0 -53 -23.5 -75.5t-80.5 -22.5h-94q-59 0 -82 22.5t-23 75.5z" />
<glyph unicode="&#xfd;" horiz-adv-x="1695" d="M119 0zM119 520v590h301v-578q0 -92 40 -127.5t134 -35.5h682v741h297v-1090q0 -186 -92 -269t-301 -83h-445v250h418q63 0 93 24.5t30 94.5v90h-701q-125 0 -212 23.5t-141 72.5t-78.5 123t-24.5 174zM662 1255l256 447h321l-325 -447h-252z" />
<glyph unicode="&#xfe;" horiz-adv-x="1687" d="M121 -332v1800h311v-358h610q156 0 258.5 -25.5t164 -82t87 -148.5t25.5 -225v-150q0 -133 -25.5 -224t-87 -147.5t-164 -82t-258.5 -25.5h-610v-332h-311zM432 258h602q70 0 116 10.5t73.5 36t38 69.5t10.5 113v131q0 68 -10.5 112t-38 70.5t-73.5 37t-116 10.5h-602 v-590z" />
<glyph unicode="&#xff;" horiz-adv-x="1695" d="M119 0zM119 520v590h301v-578q0 -92 40 -127.5t134 -35.5h682v741h297v-1090q0 -186 -92 -269t-301 -83h-445v250h418q63 0 93 24.5t30 94.5v90h-701q-125 0 -212 23.5t-141 72.5t-78.5 123t-24.5 174zM432 1288v92q0 53 23.5 76t82.5 23h94q59 0 82 -22.5t23 -76.5v-108 q0 -53 -22.5 -75.5t-82.5 -22.5h-94q-66 0 -86 26.5t-20 87.5zM960 1272v108q0 53 22.5 76t82.5 23h94q57 0 80.5 -22.5t23.5 -76.5v-108q0 -53 -23.5 -75.5t-80.5 -22.5h-94q-59 0 -82 22.5t-23 75.5z" />
<glyph unicode="&#x152;" horiz-adv-x="2945" d="M111 479v439q0 131 25.5 223t87 148.5t163.5 82t256 25.5h510q135 0 227.5 -19.5t153.5 -62.5q59 43 152.5 62.5t226.5 19.5h330v-264h-330q-66 0 -109 -10.5t-68.5 -33t-35.5 -61.5t-10 -94v-111h1167v-248h-1167v-114q0 -59 10 -97t35.5 -59.5t68.5 -31t109 -9.5h952 v-264h-952q-133 0 -226.5 18.5t-152.5 61.5q-61 -43 -153.5 -61.5t-227.5 -18.5h-510q-154 0 -256 25.5t-163.5 82t-87 147.5t-25.5 224zM420 492q0 -68 9 -112t36 -69.5t73 -35t119 -9.5h484q70 0 114.5 9.5t72.5 35t39 69.5t11 112v411q0 66 -11 109t-39 69.5t-73 36.5 t-114 10h-484q-74 0 -119.5 -10t-72.5 -36.5t-36 -69.5t-9 -109v-411z" />
<glyph unicode="&#x153;" horiz-adv-x="2750" d="M111 479v150q0 133 25.5 225t87 148.5t163.5 82t256 25.5h350q129 0 219.5 -17.5t151.5 -58.5q57 41 146 58.5t219 17.5h516q119 0 197.5 -22.5t124.5 -62.5t64.5 -96.5t18.5 -121.5v-365h-1122v-51q0 -51 8 -81.5t29.5 -48t57.5 -24t91 -6.5h346v-231h-346 q-233 0 -342 78q-61 -41 -153.5 -59.5t-225.5 -18.5h-350q-154 0 -256 25.5t-163.5 82t-87 147.5t-25.5 224zM416 487q0 -70 11 -113.5t41 -69t82 -36t134 -10.5h270q82 0 134.5 10.5t83 36t42 69.5t11.5 113v131q0 70 -11.5 115t-42 70.5t-83 35t-134.5 9.5h-270 q-82 0 -134 -9.5t-82 -35t-41 -70.5t-11 -115v-131zM1528 639h819v143q0 55 -27.5 73.5t-99.5 18.5h-487q-57 0 -96.5 -5t-64 -23.5t-34.5 -53t-10 -94.5v-59z" />
<glyph unicode="&#x178;" horiz-adv-x="1972" d="M8 0zM8 1397h420l563 -498l574 498h397l-823 -742v-655h-312v659zM570 1575v92q0 53 23.5 76t82.5 23h94q59 0 82 -22.5t23 -76.5v-108q0 -53 -22.5 -75.5t-82.5 -22.5h-94q-66 0 -86 26.5t-20 87.5zM1098 1559v108q0 53 22.5 76t82.5 23h94q57 0 80.5 -22.5t23.5 -76.5 v-108q0 -53 -23.5 -75.5t-80.5 -22.5h-94q-59 0 -82 22.5t-23 75.5z" />
<glyph unicode="&#x2c6;" horiz-adv-x="1296" d="M121 1176l346 460q29 37 70 60.5t112 23.5q72 0 111 -23.5t67 -60.5l349 -460h-302l-231 311l-227 -311h-295z" />
<glyph unicode="&#x2dc;" horiz-adv-x="1323" d="M121 1348v217h1081v-217h-1081z" />
<glyph unicode="&#x2000;" horiz-adv-x="1003" />
<glyph unicode="&#x2001;" horiz-adv-x="2007" />
<glyph unicode="&#x2002;" horiz-adv-x="1003" />
<glyph unicode="&#x2003;" horiz-adv-x="2007" />
<glyph unicode="&#x2004;" horiz-adv-x="669" />
<glyph unicode="&#x2005;" horiz-adv-x="501" />
<glyph unicode="&#x2006;" horiz-adv-x="334" />
<glyph unicode="&#x2007;" horiz-adv-x="334" />
<glyph unicode="&#x2008;" horiz-adv-x="250" />
<glyph unicode="&#x2009;" horiz-adv-x="401" />
<glyph unicode="&#x200a;" horiz-adv-x="111" />
<glyph unicode="&#x2010;" horiz-adv-x="811" d="M68 532v242h675v-242h-675z" />
<glyph unicode="&#x2011;" horiz-adv-x="811" d="M68 532v242h675v-242h-675z" />
<glyph unicode="&#x2012;" horiz-adv-x="811" d="M68 532v242h675v-242h-675z" />
<glyph unicode="&#x2013;" horiz-adv-x="1431" d="M68 532v242h1298v-242h-1298z" />
<glyph unicode="&#x2014;" horiz-adv-x="1961" d="M68 532v242h1828v-242h-1828z" />
<glyph unicode="&#x2018;" horiz-adv-x="466" d="M84 1473h285l47 -502h-215z" />
<glyph unicode="&#x2019;" horiz-adv-x="466" d="M84 971l47 502h285l-117 -502h-215z" />
<glyph unicode="&#x201a;" horiz-adv-x="466" d="M84 -150l47 500h285l-117 -500h-215z" />
<glyph unicode="&#x201c;" horiz-adv-x="933" d="M84 971zM84 1473h285l47 -502h-215zM551 1473h285l47 -502h-215z" />
<glyph unicode="&#x201d;" horiz-adv-x="933" d="M84 971l47 502h285l-117 -502h-215zM84 971zM551 971l47 502h285l-117 -502h-215z" />
<glyph unicode="&#x201e;" horiz-adv-x="933" d="M84 0zM84 -150l47 500h285l-117 -500h-215zM551 -150l47 500h285l-117 -500h-215z" />
<glyph unicode="&#x2022;" horiz-adv-x="788" d="M121 582v213q0 92 57.5 145t147.5 53h139q203 0 203 -196v-215q0 -92 -55.5 -142.5t-147.5 -50.5h-139q-92 0 -148.5 50t-56.5 143z" />
<glyph unicode="&#x2026;" horiz-adv-x="2764" d="M121 0zM121 92v168q0 47 23.5 69.5t80.5 22.5h101q59 0 82.5 -22.5t23.5 -69.5v-168q0 -49 -23.5 -70.5t-82.5 -21.5h-101q-57 0 -80.5 21.5t-23.5 70.5zM1227 92v168q0 47 23.5 69.5t80.5 22.5h101q59 0 82.5 -22.5t23.5 -69.5v-168q0 -49 -23.5 -70.5t-82.5 -21.5h-101 q-57 0 -80.5 21.5t-23.5 70.5zM2333 92v168q0 47 23.5 69.5t80.5 22.5h101q59 0 82.5 -22.5t23.5 -69.5v-168q0 -49 -23.5 -70.5t-82.5 -21.5h-101q-57 0 -80.5 21.5t-23.5 70.5z" />
<glyph unicode="&#x202f;" horiz-adv-x="401" />
<glyph unicode="&#x2039;" horiz-adv-x="591" d="M39 670q0 68 23.5 104.5t62.5 65.5l399 301v-277l-268 -196l268 -199v-272l-399 299q-39 29 -62.5 67.5t-23.5 106.5z" />
<glyph unicode="&#x203a;" horiz-adv-x="591" d="M39 197v272l268 199l-268 196v277l399 -301q39 -29 62.5 -66t23.5 -104q0 -68 -23.5 -107t-62.5 -67z" />
<glyph unicode="&#x205f;" horiz-adv-x="501" />
<glyph unicode="&#x20ac;" horiz-adv-x="1699" d="M20 467l48 174h145v113h-193l48 174h145q2 129 28.5 218t88 144.5t163 81t255.5 25.5h899l-109 -262h-784q-74 0 -119 -10.5t-70.5 -34t-35 -63.5t-9.5 -99h938l-74 -174h-868v-113h825l-71 -174h-752q2 -61 11.5 -102t35 -65t70.5 -33t119 -9h886v-258h-892 q-154 0 -255.5 25.5t-163 81t-88 144.5t-28.5 216h-193z" />
<glyph unicode="&#x2122;" horiz-adv-x="2547" d="M66 1223v174h854v-174h-330v-699h-199v699h-325zM1044 524v811q0 41 34 61.5t75 20.5q35 0 56.5 -10t37.5 -33l490 -641l489 639q18 23 36.5 34t53.5 11q43 0 76 -20.5t33 -61.5v-811h-182v561l-420 -542q-31 -39 -90 -39q-57 0 -88 39l-418 542v-561h-183z" />
<glyph unicode="&#x25fc;" horiz-adv-x="1105" d="M0 0v1106h1106v-1106h-1106z" />
<glyph unicode="&#xfb01;" horiz-adv-x="1439" d="M121 0v1169q0 168 88 233.5t268 65.5h354v-217h-307q-57 0 -77.5 -19.5t-20.5 -72.5v-49h403v-248h-403v-862h-305zM121 0zM1008 0v1081h311v-1081h-311zM1008 1268v118q0 49 23.5 71t80.5 22h101q59 0 82.5 -21.5t23.5 -71.5v-118q0 -49 -23.5 -71.5t-82.5 -22.5h-101 q-57 0 -80.5 22.5t-23.5 71.5z" />
<glyph unicode="&#xfb02;" horiz-adv-x="1439" d="M121 0v1169q0 168 88 233.5t268 65.5h354v-217h-307q-57 0 -77.5 -19.5t-20.5 -72.5v-49h403v-248h-403v-862h-305zM121 0zM1008 0v1468h311v-1468h-311z" />
</font>
</defs>
</svg>
