<?xml version="1.0" encoding="utf-8"?>
<!-- Generator: Adobe Illustrator 17.0.0, SVG Export Plug-In . SVG Version: 6.00 Build 0)  -->
<!DOCTYPE svg PUBLIC "-//W3C//DTD SVG 1.1//EN" "http://www.w3.org/Graphics/SVG/1.1/DTD/svg11.dtd">
<svg version="1.1" id="Layer_1" xmlns="http://www.w3.org/2000/svg" xmlns:xlink="http://www.w3.org/1999/xlink" x="0px" y="0px"
	 width="544px" height="69.5px" viewBox="0 0 544 69.5" enable-background="new 0 0 544 69.5" xml:space="preserve">
<g>
	<g>
		<path fill-opacity="0.0" d="M-22.26,154.24c0-80,0-160,0-240c200,0,400.001,0,600.001,0c0,80,0,160,0,240
			C377.741,154.24,177.74,154.24-22.26,154.24z M105.943,63.157c0.369,0.019,0.737,0.038,1.106,0.058c0-0.043,0-0.086,0-0.128
			c-0.37,0.023-0.74,0.047-1.109,0.07c-0.408-0.544-1.063-0.448-1.61-0.58c-5.187-1.254-9.832-3.536-13.777-7.169
			c-0.256-0.236-0.484-0.504-0.759-0.794c2.015-2.857,3.991-5.659,6.046-8.572c-0.263-0.287-0.497-0.542-0.801-0.874
			c-2.313,3.276-4.495,6.366-6.722,9.52c0.384,0.342,0.681,0.606,0.977,0.872c2.671,2.409,5.691,4.246,9.033,5.573
			C100.788,62.108,103.354,62.668,105.943,63.157z M308.631,62.448c0-18.772,0-37.495,0-56.255
			c-0.256-0.027-0.449-0.064-0.642-0.063c-0.193,0.001-0.385,0.039-0.639,0.068c0,18.759,0,37.481,0,56.249
			c0.259,0.028,0.451,0.066,0.643,0.066C308.184,62.512,308.374,62.475,308.631,62.448z M428.742,62.462c0-18.79,0-37.518,0-56.335
			c-0.466,0.021-0.844,0.038-1.203,0.054c-0.261,1.916-0.167,55.446,0.102,56.335C427.976,62.5,428.325,62.483,428.742,62.462z
			 M144.52,62.466c0.062-0.207,0.126-0.32,0.126-0.433c0.009-18.311,0.014-36.623,0.015-54.934c0-0.236-0.05-0.473-0.081-0.708
			c-0.005-0.037-0.03-0.075-0.055-0.105c-0.024-0.029-0.06-0.047-0.158-0.12c-0.125-0.009-0.321-0.037-0.517-0.035
			c-0.152,0.002-0.303,0.04-0.514,0.07c0,18.759,0,37.485,0,56.266C143.759,62.466,144.104,62.466,144.52,62.466z M68.928,6.25
			c0,18.699,0,37.421,0,56.134c1.182,0.154,1.283,0.083,1.335-0.893c0.006-0.12,0.003-0.24,0.003-0.36
			c0-17.704,0.001-35.407-0.005-53.111c0-0.396-0.037-0.8-0.124-1.185C69.999,6.226,69.629,5.96,68.928,6.25z M516.007,6.174
			c-7.263,18.747-14.516,37.47-21.804,56.283c0.369,0.029,0.564,0.061,0.758,0.056c0.193-0.005,0.386-0.048,0.676-0.088
			c7.251-18.715,14.503-37.432,21.794-56.251C516.839,6.174,516.453,6.174,516.007,6.174z M4.853,6.176
			c7.292,18.822,14.547,37.549,21.801,56.271c0.465,0,0.845,0,1.424,0c-7.302-18.85-14.555-37.57-21.8-56.271
			C5.773,6.176,5.384,6.176,4.853,6.176z M199.527,62.422c1.231,0.094,1.271,0.082,1.654-0.726c0.171-0.36,0.307-0.738,0.452-1.11
			c1.891-4.881,3.78-9.763,5.671-14.644c4.909-12.668,9.821-25.336,14.723-38.007c0.207-0.534,0.568-1.059,0.372-1.679
			c-1.085-0.156-1.087-0.157-1.524,0.971c-6.971,17.997-13.942,35.995-20.912,53.993C199.821,61.588,199.694,61.961,199.527,62.422z
			 M363.448,62.336c1.26,0.23,1.265,0.233,1.651-0.622c0.164-0.364,0.304-0.739,0.448-1.112
			c6.856-17.697,13.712-35.394,20.566-53.092c0.156-0.403,0.29-0.814,0.47-1.32c-0.509,0-0.895,0-1.382,0
			C377.97,24.855,370.729,43.544,363.448,62.336z M262.995,6.174c0,0.564,0,0.999,0,1.434c0,17.79,0,35.58,0.002,53.37
			c0,0.398,0.016,0.798,0.05,1.195c0.009,0.103,0.113,0.198,0.205,0.349c0.332-0.025,0.675-0.05,0.996-0.074
			c0.254-1.369,0.199-55.364-0.052-56.274C263.861,6.174,263.516,6.174,262.995,6.174z M116.486,52.876
			c0.01,0.051,0.019,0.102,0.029,0.153c1.262-0.343,2.553-0.606,3.778-1.051c1.34-0.486,2.433-1.374,3.21-2.595
			c1.379-2.169,0.963-4.665-1.141-6.132c-0.902-0.628-1.945-1.144-2.999-1.447c-3.452-0.993-6.922-1.942-10.418-2.765
			c-4.203-0.99-8.186-2.433-11.742-4.937c-1.601-1.128-2.833-2.565-3.783-4.27c-2.584-4.642-2.78-12.502,2.138-17.787
			c2.021-2.172,4.36-3.876,7.128-4.946c1.326-0.513,2.699-0.905,4.12-1.375c-0.297,0-0.537-0.036-0.763,0.006
			c-2.773,0.512-5.428,1.37-7.814,2.904c-5.656,3.636-8.574,8.705-7.92,15.545c0.405,4.236,2.214,7.715,5.809,10.152
			c2.943,1.995,6.163,3.357,9.598,4.243c3.982,1.027,7.96,2.066,11.936,3.115c1.406,0.371,2.714,0.954,3.804,1.95
			c1.153,1.055,1.595,2.343,1.321,3.895c-0.351,1.99-1.605,3.278-3.299,4.161C118.532,52.188,117.486,52.488,116.486,52.876z
			 M49.988,6.183c-0.118,0.291-0.214,0.509-0.295,0.733c-4.794,13.179-9.577,26.363-14.397,39.532
			c-0.365,0.997-0.117,1.766,0.449,2.732c5.231-14.389,10.413-28.644,15.631-42.997C50.852,6.183,50.466,6.183,49.988,6.183z
			 M478.138,22.611c-0.602,1.272-1.406,2.404-1.404,3.83c0.014,11.64,0.007,23.279,0.011,34.919c0,0.349,0.042,0.699,0.071,1.15
			c0.486-0.022,0.893-0.041,1.322-0.06C478.138,49.072,478.138,35.841,478.138,22.611z M441.219,22.599
			c-0.078,0.014-0.157,0.027-0.235,0.041c-0.075,1.585,0.006,3.102,0.625,4.652c4.497,11.278,8.913,22.587,13.358,33.885
			c0.173,0.439,0.369,0.869,0.578,1.358c0.43-0.041,0.8-0.076,1.332-0.126C451.615,49.032,446.417,35.815,441.219,22.599z
			 M321.01,26.007c-0.32,1.167-0.046,1.903,0.513,2.661c8.093,10.97,16.163,21.957,24.239,32.939
			c0.118,0.161,0.228,0.33,0.358,0.481c0.473,0.554,0.585,0.56,1.457,0.054C338.767,50.16,329.964,38.186,321.01,26.007z
			 M347.314,41.19c0.296-3.008,0.161-34.104-0.141-35.013c-0.335,0-0.683,0-1.179,0c0,0.477,0,0.907,0,1.337
			c0,10.279,0.02,20.559-0.027,30.838C345.962,39.524,346.479,40.274,347.314,41.19z M471.918,6.111
			c-0.195,0.472-0.353,0.836-0.498,1.206c-4.045,10.335-8.075,20.677-12.153,30.999c-0.398,1.006-0.367,1.835,0.346,2.809
			c4.564-11.651,9.102-23.216,13.652-34.919C472.719,6.168,472.374,6.143,471.918,6.111z M182.212,62.474
			c1.291-0.059,1.346-0.109,1.347-1.377c0.004-7.068,0.003-14.136-0.001-21.204c0-0.345-0.048-0.69-0.08-1.122
			c-0.47,0.03-0.844,0.054-1.265,0.081C182.212,46.77,182.212,54.581,182.212,62.474z M239.132,42.289
			c-2.924-8.006-5.809-15.906-8.751-23.96c-0.656,1.063-0.763,1.898-0.387,2.908c2.461,6.618,4.863,13.258,7.288,19.889
			c0.148,0.404,0.326,0.796,0.477,1.163C238.232,42.289,238.613,42.289,239.132,42.289z M525.111,18.354
			c-0.658,0.995-0.787,1.826-0.41,2.841c2.474,6.656,4.892,13.333,7.33,20.002c0.135,0.369,0.293,0.729,0.466,1.157
			c0.441-0.022,0.842-0.042,1.355-0.068C530.912,34.238,528.033,26.353,525.111,18.354z M394.314,18.358
			c-0.728,1.038-0.764,1.922-0.373,2.96c1.759,4.671,3.451,9.366,5.165,14.054c0.741,2.025,1.463,4.057,2.224,6.074
			c0.358,0.949,0.566,1.015,1.667,0.696C400.123,34.268,397.25,26.399,394.314,18.358z M183.489,6.119
			c-0.534,0.032-0.904,0.054-1.28,0.076c-0.027,0.276-0.056,0.432-0.056,0.588c-0.003,6.635-0.004,13.271,0,19.906
			c0,0.277,0.019,0.566,0.099,0.827c0.182,0.592,0.552,0.859,1.236,0.533C183.489,20.81,183.489,13.551,183.489,6.119z
			 M535.8,52.984c1.223,3.278,2.389,6.403,3.565,9.555c0.503-0.037,0.873-0.064,1.375-0.101c-1.205-3.238-2.356-6.333-3.517-9.454
			C536.775,52.984,536.388,52.984,535.8,52.984z M241.08,52.985c1.222,3.275,2.387,6.4,3.566,9.559
			c0.47-0.049,0.809-0.084,1.352-0.14c-1.194-3.221-2.338-6.308-3.492-9.419C242.057,52.985,241.67,52.985,241.08,52.985z
			 M409.955,62.477c-1.223-3.283-2.384-6.399-3.557-9.55c-0.478,0.026-0.852,0.047-1.386,0.077c1.214,3.261,2.374,6.377,3.527,9.474
			C409.019,62.477,409.368,62.477,409.955,62.477z M116.006,16.17c2.079,0.797,4.08,1.392,5.915,2.316
			c1.839,0.925,3.513,2.178,5.32,3.326c0.077-0.116,0.216-0.325,0.395-0.595C124.211,18.46,120.399,16.848,116.006,16.17z"/>
		<path d="M308.631,62.448c-0.256,0.028-0.447,0.065-0.638,0.065c-0.192,0-0.383-0.037-0.643-0.066c0-18.767,0-37.49,0-56.249
			c0.253-0.029,0.446-0.068,0.639-0.068c0.193-0.001,0.386,0.036,0.642,0.063C308.631,24.952,308.631,43.675,308.631,62.448z"/>
		<path d="M428.742,62.462c-0.417,0.02-0.766,0.037-1.101,0.054c-0.269-0.889-0.363-54.419-0.102-56.335
			c0.359-0.016,0.737-0.033,1.203-0.054C428.742,24.944,428.742,43.672,428.742,62.462z"/>
		<path d="M144.52,62.466c-0.417,0-0.762,0-1.183,0c0-18.781,0-37.507,0-56.266c0.21-0.03,0.362-0.068,0.514-0.07
			c0.196-0.002,0.392,0.025,0.517,0.035c0.098,0.073,0.134,0.092,0.158,0.12c0.025,0.03,0.05,0.068,0.055,0.105
			c0.031,0.236,0.081,0.472,0.081,0.708c-0.001,18.311-0.006,36.623-0.015,54.934C144.646,62.145,144.583,62.258,144.52,62.466z"/>
		<path d="M68.928,6.25c0.701-0.291,1.07-0.024,1.209,0.586c0.087,0.385,0.124,0.789,0.124,1.185
			c0.006,17.704,0.005,35.407,0.005,53.111c0,0.12,0.004,0.24-0.003,0.36c-0.052,0.976-0.153,1.047-1.335,0.893
			C68.928,43.671,68.928,24.949,68.928,6.25z"/>
		<path d="M516.007,6.174c0.446,0,0.832,0,1.425,0c-7.291,18.819-14.543,37.536-21.794,56.251c-0.29,0.04-0.483,0.082-0.676,0.088
			c-0.194,0.005-0.39-0.026-0.758-0.056C501.491,43.644,508.744,24.922,516.007,6.174z"/>
		<path d="M4.853,6.176c0.531,0,0.92,0,1.425,0c7.245,18.701,14.497,37.422,21.8,56.271c-0.579,0-0.958,0-1.424,0
			C19.401,43.725,12.145,24.997,4.853,6.176z"/>
		<path d="M199.527,62.422c0.167-0.461,0.294-0.835,0.436-1.202c6.97-17.998,13.941-35.995,20.912-53.993
			c0.437-1.127,0.439-1.126,1.524-0.971c0.196,0.62-0.166,1.145-0.372,1.679c-4.902,12.671-9.814,25.339-14.723,38.007
			c-1.891,4.881-3.78,9.763-5.671,14.644c-0.144,0.373-0.281,0.75-0.452,1.11C200.798,62.504,200.758,62.516,199.527,62.422z"/>
		<path d="M363.448,62.336c7.28-18.791,14.521-37.481,21.753-56.146c0.487,0,0.873,0,1.382,0c-0.179,0.505-0.314,0.917-0.47,1.32
			c-6.854,17.698-13.71,35.395-20.566,53.092c-0.144,0.373-0.284,0.748-0.448,1.112C364.714,62.568,364.708,62.566,363.448,62.336z"
			/>
		<path d="M262.995,6.174c0.521,0,0.865,0,1.201,0c0.251,0.91,0.306,54.904,0.052,56.274c-0.321,0.024-0.664,0.049-0.996,0.074
			c-0.092-0.15-0.196-0.245-0.205-0.349c-0.034-0.397-0.05-0.796-0.05-1.195c-0.002-17.79-0.002-35.58-0.002-53.37
			C262.995,7.173,262.995,6.738,262.995,6.174z"/>
		<path d="M116.486,52.876c1-0.387,2.046-0.688,2.991-1.181c1.694-0.883,2.947-2.171,3.299-4.161
			c0.274-1.551-0.168-2.84-1.321-3.895c-1.089-0.996-2.398-1.579-3.804-1.95c-3.976-1.049-7.954-2.088-11.936-3.115
			c-3.435-0.886-6.655-2.248-9.598-4.243c-3.595-2.436-5.403-5.916-5.809-10.152c-0.654-6.84,2.264-11.909,7.92-15.545
			c2.386-1.534,5.041-2.392,7.814-2.904c0.226-0.042,0.467-0.006,0.763-0.006c-1.422,0.47-2.794,0.862-4.12,1.375
			c-2.768,1.07-5.107,2.774-7.128,4.946c-4.918,5.285-4.722,13.145-2.138,17.787c0.949,1.705,2.182,3.142,3.783,4.27
			c3.555,2.504,7.539,3.948,11.742,4.937c3.496,0.823,6.966,1.772,10.418,2.765c1.054,0.303,2.097,0.818,2.999,1.447
			c2.104,1.466,2.52,3.963,1.141,6.132c-0.777,1.222-1.871,2.109-3.21,2.595c-1.225,0.445-2.516,0.708-3.778,1.051
			C116.505,52.978,116.496,52.927,116.486,52.876z"/>
		<path d="M49.988,6.183c0.478,0,0.864,0,1.387,0c-5.218,14.353-10.4,28.608-15.631,42.997c-0.565-0.966-0.813-1.735-0.449-2.732
			c4.821-13.17,9.604-26.353,14.397-39.532C49.774,6.693,49.87,6.474,49.988,6.183z"/>
		<path d="M478.138,22.611c0,13.23,0,26.461,0,39.839c-0.429,0.019-0.836,0.038-1.322,0.06c-0.029-0.451-0.071-0.801-0.071-1.15
			c-0.003-11.64,0.003-23.279-0.011-34.919C476.732,25.015,477.536,23.883,478.138,22.611z"/>
		<path d="M441.219,22.599c5.198,13.217,10.396,26.433,15.657,39.811c-0.533,0.05-0.903,0.085-1.332,0.126
			c-0.209-0.489-0.405-0.919-0.578-1.358c-4.444-11.298-8.861-22.608-13.358-33.885c-0.618-1.551-0.7-3.067-0.625-4.652
			C441.062,22.626,441.141,22.612,441.219,22.599z"/>
		<path d="M321.01,26.007c8.954,12.179,17.757,24.153,26.566,36.135c-0.872,0.505-0.984,0.499-1.457-0.054
			c-0.129-0.152-0.239-0.32-0.358-0.481c-8.076-10.983-16.146-21.969-24.239-32.939C320.963,27.909,320.69,27.174,321.01,26.007z"/>
		<path d="M347.314,41.19c-0.834-0.917-1.352-1.666-1.347-2.838c0.047-10.279,0.027-20.559,0.027-30.838c0-0.43,0-0.859,0-1.337
			c0.495,0,0.844,0,1.179,0C347.475,7.086,347.61,38.182,347.314,41.19z"/>
		<path d="M471.918,6.111c0.455,0.032,0.801,0.056,1.347,0.095c-4.549,11.703-9.087,23.268-13.652,34.919
			c-0.713-0.975-0.744-1.803-0.346-2.809c4.078-10.322,8.108-20.664,12.153-30.999C471.565,6.947,471.723,6.583,471.918,6.111z"/>
		<path d="M182.212,62.474c0-7.893,0-15.704,0-23.623c0.421-0.027,0.795-0.051,1.265-0.081c0.032,0.432,0.08,0.777,0.08,1.122
			c0.004,7.068,0.005,14.136,0.001,21.204C183.559,62.365,183.504,62.415,182.212,62.474z"/>
		<path d="M239.132,42.289c-0.519,0-0.9,0-1.373,0c-0.151-0.366-0.329-0.759-0.477-1.163c-2.425-6.631-4.827-13.271-7.288-19.889
			c-0.376-1.01-0.269-1.846,0.387-2.908C233.322,26.383,236.207,34.282,239.132,42.289z"/>
		<path d="M525.111,18.354c2.922,7.999,5.801,15.884,8.741,23.933c-0.512,0.026-0.913,0.046-1.355,0.068
			c-0.173-0.428-0.331-0.788-0.466-1.157c-2.439-6.669-4.856-13.346-7.33-20.002C524.324,20.18,524.454,19.35,525.111,18.354z"/>
		<path d="M394.314,18.358c2.936,8.042,5.808,15.91,8.683,23.783c-1.101,0.319-1.309,0.253-1.667-0.696
			c-0.761-2.017-1.483-4.049-2.224-6.074c-1.715-4.687-3.407-9.383-5.165-14.054C393.551,20.28,393.586,19.395,394.314,18.358z"/>
		<path d="M183.489,6.119c0,7.432,0,14.691,0,21.93c-0.684,0.326-1.055,0.059-1.236-0.533c-0.08-0.262-0.099-0.551-0.099-0.827
			c-0.005-6.635-0.003-13.271,0-19.906c0-0.156,0.029-0.313,0.056-0.588C182.585,6.173,182.956,6.151,183.489,6.119z"/>
		<path d="M105.942,63.157c-2.588-0.488-5.155-1.048-7.616-2.025c-3.342-1.326-6.362-3.163-9.033-5.573
			c-0.295-0.266-0.593-0.53-0.977-0.872c2.227-3.154,4.409-6.244,6.722-9.52c0.305,0.332,0.538,0.587,0.801,0.874
			c-2.055,2.913-4.031,5.715-6.046,8.572c0.275,0.29,0.502,0.558,0.759,0.794c3.945,3.633,8.59,5.914,13.777,7.169
			c0.547,0.132,1.202,0.037,1.61,0.58L105.942,63.157z"/>
		<path d="M535.8,52.984c0.588,0,0.975,0,1.422,0c1.161,3.12,2.313,6.216,3.517,9.454c-0.502,0.037-0.872,0.064-1.375,0.101
			C538.189,59.387,537.023,56.262,535.8,52.984z"/>
		<path d="M241.08,52.985c0.589,0,0.977,0,1.426,0c1.153,3.112,2.298,6.198,3.492,9.419c-0.544,0.056-0.882,0.091-1.352,0.14
			C243.467,59.385,242.302,56.26,241.08,52.985z"/>
		<path d="M409.955,62.477c-0.587,0-0.935,0-1.415,0c-1.153-3.097-2.313-6.213-3.527-9.474c0.533-0.03,0.908-0.05,1.386-0.077
			C407.571,56.078,408.732,59.195,409.955,62.477z"/>
		<path d="M116.006,16.17c4.393,0.678,8.205,2.29,11.63,5.047c-0.179,0.269-0.318,0.478-0.395,0.595
			c-1.808-1.148-3.482-2.401-5.32-3.326C120.086,17.562,118.085,16.967,116.006,16.17z"/>
		<path d="M105.94,63.156c0.37-0.023,0.739-0.047,1.109-0.07c0,0.043,0,0.086,0,0.128c-0.369-0.019-0.737-0.038-1.106-0.058
			C105.942,63.157,105.94,63.156,105.94,63.156z"/>
	</g>
</g>
</svg>
