<?xml version="1.0" encoding="utf-8"?>
<!-- Generator: Adobe Illustrator 17.0.0, SVG Export Plug-In . SVG Version: 6.00 Build 0)  -->
<!DOCTYPE svg PUBLIC "-//W3C//DTD SVG 1.1//EN" "http://www.w3.org/Graphics/SVG/1.1/DTD/svg11.dtd">
<svg version="1.1" xmlns="http://www.w3.org/2000/svg" xmlns:xlink="http://www.w3.org/1999/xlink" x="0px" y="0px" width="100px"
	 height="100px" viewBox="0 0 100 100" enable-background="new 0 0 100 100" xml:space="preserve">
<g id="Layer_3" display="none">
	<rect x="-2" y="-2" display="inline" width="105" height="104"/>
</g>
<g id="Layer_1">
	
		<rect x="15.705" y="15.705" transform="matrix(-0.7071 -0.7071 0.7071 -0.7071 50 120.7107)" fill="none" stroke="#FFFFFF" stroke-miterlimit="10" width="68.589" height="68.589"/>
	<g display="none">
	</g>
</g>
<g id="Layer_2">
	<line fill="none" stroke="#FFFFFF" stroke-miterlimit="10" x1="62.5" y1="37.5" x2="37.5" y2="62.5"/>
	<g>
		<path fill="#FFFFFF" d="M35.305,48.806l-6.6-20.219h2.82l3.15,9.959c0.87,2.73,1.62,5.19,2.16,7.56h0.06
			c0.57-2.34,1.41-4.89,2.31-7.53l3.42-9.99h2.79l-7.229,20.219H35.305z"/>
	</g>
	<g>
		<path fill="#FFFFFF" d="M55.41,73.806v-20.22h2.85l6.479,10.229c1.5,2.37,2.67,4.5,3.63,6.57l0.061-0.03
			c-0.24-2.699-0.301-5.16-0.301-8.31v-8.46h2.46v20.22h-2.64l-6.42-10.26c-1.41-2.25-2.76-4.56-3.779-6.75l-0.09,0.03
			c0.149,2.55,0.21,4.979,0.21,8.34v8.64H55.41z"/>
	</g>
	<g>
	</g>
	<g>
	</g>
	<g>
	</g>
	<g>
	</g>
	<g>
	</g>
	<g>
	</g>
	<g>
	</g>
	<g>
	</g>
	<g>
	</g>
	<g>
	</g>
	<g>
	</g>
	<g>
	</g>
	<g>
	</g>
	<g>
	</g>
	<g>
	</g>
</g>
</svg>
