<?xml version="1.0" encoding="utf-8"?>
<!-- Generator: Adobe Illustrator 17.0.0, SVG Export Plug-In . SVG Version: 6.00 Build 0)  -->
<!DOCTYPE svg PUBLIC "-//W3C//DTD SVG 1.1//EN" "http://www.w3.org/Graphics/SVG/1.1/DTD/svg11.dtd">
<svg version="1.1" id="Layer_1" xmlns="http://www.w3.org/2000/svg" xmlns:xlink="http://www.w3.org/1999/xlink" x="0px" y="0px"
	 width="500px" height="500px" viewBox="0 0 500 500" enable-background="new 0 0 500 500" xml:space="preserve">
<g>
	<g>
		<path fill="#fec60f" d="M501,501c-166.666,0-333.333,0-500,0C1,334.333,1,167.667,1,1c166.666,0,333.333,0,500,0
			C501,167.667,501,334.333,501,501z M4.735,250.856c82.086,82.071,164.403,164.372,246.223,246.177
			c82.015-82.015,164.298-164.298,246.243-246.242C415.291,168.889,333.007,86.612,250.988,4.601
			C169.113,86.476,86.907,168.683,4.735,250.856z"/>
		<path d="M4.735,250.856C86.907,168.683,169.113,86.476,250.988,4.601c82.019,82.011,164.303,164.288,246.213,246.19
			c-81.944,81.944-164.228,164.227-246.243,246.242C169.137,415.228,86.821,332.927,4.735,250.856z M29.38,250.776
			c74.002,73.996,148.08,148.068,221.431,221.414c74.047-74.047,148.329-148.329,222.377-222.376
			C399.62,176.251,325.544,102.18,251.756,28.397C177.796,102.358,103.596,176.558,29.38,250.776z"/>
		<path fill="#fec60f" d="M29.38,250.776c74.217-74.218,148.416-148.418,222.376-222.379
			c73.788,73.783,147.864,147.854,221.432,221.417C399.14,323.861,324.858,398.143,250.811,472.19
			C177.459,398.844,103.382,324.772,29.38,250.776z M285.843,298.529c1.236,1.591,1.653,2.05,1.984,2.563
			c13.168,20.421,26.326,40.847,39.489,61.271c4.73,7.339,7.401,8.29,16.287,5.831c0-27.579,0-55.157,0-82.832
			c-3.332,0-6.374,0-9.899,0c0,23.16,0,45.962,0,69.749c-1.517-2.298-2.446-3.666-3.336-5.06
			c-13.076-20.479-26.127-40.974-39.264-61.415c-0.907-1.412-2.332-3.271-3.708-3.452c-3.682-0.483-7.469-0.164-11.142-0.164
			c0,28.351,0,55.94,0,83.617c3.302,0,6.338,0,9.589,0C285.843,345.489,285.843,322.7,285.843,298.529z M327.601,167.842
			c-53.438,53.445-106.505,106.519-158.962,158.984c1.562,2.041,3.45,4.509,4.805,6.279
			c53.39-53.389,106.461-106.46,159.786-159.785C331.5,171.636,329.383,169.576,327.601,167.842z M192.374,215.315
			c-0.468-0.39-0.847-0.546-0.936-0.803c-7.167-20.727-14.306-41.465-21.461-62.196c-3.136-9.086-3.15-9.082-12.913-8.143
			c-0.141,0.014-0.27,0.143-0.648,0.355c0.487,1.501,0.945,3.072,1.502,4.608c8.999,24.846,18.091,49.658,26.925,74.562
			c1.22,3.441,2.831,4.687,6.365,4.366c3.378-0.307,6.274,0.479,7.983-4.35c8.868-25.066,18.321-49.925,27.555-74.861
			c0.537-1.451,0.936-2.952,1.44-4.559c-10.187-0.838-10.167-0.831-13.246,7.808C207.442,173.141,199.923,194.172,192.374,215.315z"
			/>
		<path d="M285.843,298.529c0,24.171,0,46.959,0,70.108c-3.251,0-6.288,0-9.589,0c0-27.676,0-55.266,0-83.617
			c3.674,0,7.46-0.318,11.142,0.164c1.377,0.18,2.801,2.04,3.708,3.452c13.136,20.44,26.187,40.936,39.264,61.415
			c0.89,1.393,1.819,2.762,3.336,5.06c0-23.787,0-46.589,0-69.749c3.526,0,6.567,0,9.899,0c0,27.675,0,55.254,0.007,82.833
			c-8.894,2.459-11.564,1.508-16.294-5.831c-13.163-20.423-26.322-40.85-39.489-61.271
			C287.496,300.579,287.079,300.12,285.843,298.529z"/>
		<path d="M327.601,167.842c1.782,1.734,3.898,3.794,5.629,5.478c-53.326,53.325-106.396,106.396-159.786,159.785
			c-1.355-1.77-3.243-4.238-4.805-6.279C221.097,274.362,274.164,221.287,327.601,167.842z"/>
		<path d="M192.374,215.315c7.549-21.142,15.068-42.174,22.567-63.212c3.079-8.639,3.059-8.646,13.246-7.808
			c-0.504,1.607-0.903,3.109-1.44,4.559c-9.234,24.937-18.686,49.796-27.555,74.861c-1.708,4.828-4.605,4.043-7.983,4.35
			c-3.534,0.321-5.145-0.925-6.365-4.366c-8.834-24.904-17.926-49.716-26.925-74.562c-0.556-1.536-1.015-3.107-1.502-4.608
			c0.378-0.212,0.507-0.341,0.648-0.355c9.763-0.939,9.777-0.943,12.913,8.143c7.155,20.731,14.294,41.469,21.461,62.196
			C191.527,214.768,191.906,214.924,192.374,215.315z"/>
	</g>
</g>
</svg>
