<?xml version="1.0" encoding="utf-8"?>
<!-- Generator: Adobe Illustrator 17.0.0, SVG Export Plug-In . SVG Version: 6.00 Build 0)  -->
<!DOCTYPE svg PUBLIC "-//W3C//DTD SVG 1.1//EN" "http://www.w3.org/Graphics/SVG/1.1/DTD/svg11.dtd">
<svg version="1.1" id="Layer_1" xmlns="http://www.w3.org/2000/svg" xmlns:xlink="http://www.w3.org/1999/xlink" x="0px" y="0px"
	 width="323.81px" height="319.583px" viewBox="105.973 -36.653 323.81 319.583"
	 enable-background="new 105.973 -36.653 323.81 319.583" xml:space="preserve">
<g>
	<g id="XMLID_1_">
		<g>
			<path fill="#FFFFFF" d="M938.354-126.06c0,166.88,0,333.85,0,500.83c-333.43,0-667,0-1000.63,0c0-166.91,0-333.82,0-500.83
				C271.163-126.06,604.674-126.06,938.354-126.06z M785.154,146.73c0-15.5,0-30.41,0-45.74c-16.91,0-33.53-0.08-50.15,0.16
				c-1.11,0.01-3.1,2.33-3.12,3.61c-0.23,13.81-0.15,27.63-0.15,41.97C749.844,146.73,767.484,146.73,785.154,146.73z
				 M714.013,100.32c-16.07,0-32.1,0-48.37,0c0,15.62,0,30.89,0,46.95c9.19,0,18.19,0.06,27.13,0.03c4.4-0.01,8.79-0.03,13.18-0.11
				c0.26,0,0.52-0.02,0.78-0.06c0.26-0.03,0.5-0.08,0.75-0.13c1.56-0.38,2.9-1.28,3.95-2.56c0.35-0.42,0.66-0.88,0.94-1.38
				c0.42-0.74,0.76-1.56,1.02-2.45c0.26-0.88,0.42-1.82,0.5-2.81c-12.96,0-25.9,0-38.93,0c0-9.56,0-18.76,0-28.16
				c9.38,0,18.37,0.05,27.36-0.02C708.654,109.57,712.404,106.52,714.013,100.32z M639.633,146.99c0-9.36,0-18.38,0-28.05
				c-13.83,0-27.21,0-40.59,0c0-3.09,0-5.53,0-8.38c2.04-0.09,3.82-0.23,5.61-0.24c7.83-0.02,15.66,0.07,23.49-0.04
				c0.56-0.01,1.11-0.04,1.63-0.11c0.53-0.07,1.04-0.16,1.54-0.28c0.66-0.16,1.29-0.36,1.88-0.62c3.27-1.4,5.5-4.17,6.32-7.92
				c-16.56,0-33.11,0-49.5,0c0,9.27,0,18.16,0,27.44c13.69,0,26.96,0,40.45,0c0,3.12,0,5.85,0,9.01c-2.93,0-5.83-0.01-8.71-0.01
				c-7.05-0.02-14-0.04-20.95,0.05c-1.93,0.03-3.65,0.38-5.22,1.02c-0.23,0.09-0.46,0.19-0.69,0.31c-0.16,0.07-0.32,0.15-0.48,0.24
				c-0.22,0.1-0.43,0.22-0.64,0.35c-0.58,0.35-1.14,0.74-1.68,1.18c-0.54,0.43-1.06,0.91-1.55,1.43c-1.26,1.3-2.4,2.85-3.48,4.62
				C605.104,146.99,622.313,146.99,639.633,146.99z M563.424,101.07c-17.45,0-34.83,0-52.77,0c2.17,5.65,5.27,9.2,11.11,9.22
				c10.49,0.05,20.99,0.11,31.48-0.02C558.763,110.2,561.984,107.18,563.424,101.07z M563.373,138.02c-17.43,0-34.82,0-52.26,0
				c1.65,6.02,4.97,9.17,10.24,9.24c10.66,0.14,21.32,0.14,31.97,0C558.813,147.19,562.193,143.93,563.373,138.02z M563.253,119.19
				v-0.01c-17.18,0.01-34.33,0.01-51.85,0.01c-0.11,0-0.23,0-0.34,0c0.86,2.94,2.15,5.27,3.82,6.87c0.42,0.4,0.86,0.76,1.32,1.07
				c0.47,0.31,0.96,0.57,1.47,0.78c0.51,0.21,1.04,0.37,1.6,0.48c0.55,0.12,1.12,0.18,1.72,0.19c2.49,0.04,4.99,0.06,7.48,0.08
				c4.48,0.05,8.97,0.06,13.45,0.04c4.01-0.01,8.03-0.06,12.04-0.14c0.31-0.01,0.62-0.03,0.92-0.07c0.9-0.1,1.74-0.34,2.53-0.68
				c0.52-0.23,1.02-0.51,1.48-0.84c0.47-0.32,0.9-0.7,1.3-1.11C561.794,124.2,562.873,121.89,563.253,119.19z M488.733,101.37
				c-19.71,0-38.71,0-58.78,0c2.04,2.69,3.15,5.79,5.01,6.34c6.33,1.88,12.93,2.87,20.2,4.35c0,11.03,0,22.91,0,34.9
				c3.37,0,6.11,0,9.41,0c0-12.22,0-24.1,0-36.39c5.2,0,9.9,0.47,14.45-0.13C483.913,109.8,487.254,106.68,488.733,101.37z
				 M420.654,13.19c2.85-5.75,5.83-11.78,9.13-18.47c-108.24-41.85-215.6-41.84-323.81-0.04c3.2,6.59,6.07,12.51,8.99,18.52
				C217.184-27.54,318.573-27.53,420.654,13.19z M414.684,22.02c-0.86-0.46-1.69-0.99-2.59-1.39
				c-33.67-14.88-68.96-23.12-105.61-25.93c-2.51-0.19-4.44,0.2-6.13,1.26c-0.63,0.39-1.22,0.87-1.81,1.45
				c-0.44,0.43-0.87,0.92-1.3,1.46c-4.76,5.98-9.59,11.9-14.49,17.85c-1.22,1.48-2.44,2.97-3.68,4.46c0,0.01,0,0.01,0,0.01
				c-1.23,1.48-2.46,2.97-3.7,4.47v0.01c-2.48,2.99-4.96,6-7.45,9.03c-0.41-0.46-0.79-0.89-1.17-1.3c-0.16-0.18-0.31-0.36-0.46-0.53
				c-0.66-0.72-1.26-1.41-1.84-2.11c-8.89-10.8-17.87-21.53-26.57-32.48c-2.22-2.79-4.44-3.88-7.98-3.63
				c-10.5,0.74-20.92,1.93-31.24,3.64c-4.43,0.73-8.84,1.56-13.22,2.49c-8.78,1.85-17.47,4.1-26.08,6.78
				c-13.12,4.08-25.95,9.07-39.56,13.88c11.79,16.43,26.86,26.09,44.35,33.55h0.01c0.07-0.63,0.14-1.24,0.23-1.84
				s0.2-1.18,0.32-1.74c0.16-0.75,0.35-1.47,0.56-2.17c0.08-0.26,0.16-0.52,0.25-0.77c0.17-0.5,0.36-1,0.55-1.47
				c0.1-0.24,0.2-0.48,0.31-0.71c0.14-0.3,0.29-0.61,0.44-0.9c0.92-1.78,2.04-3.32,3.34-4.66c3.7-3.8,8.85-5.97,15-7.12
				c2.45-0.46,4.89-1.15,7.36-1.32c9.88-0.69,19.77-1.23,29.61-1.81c15.21,84.87,30.24,168.66,45.26,252.45
				c0.32-0.03,0.63-0.07,0.95-0.11c3.73-20.96,7.47-41.92,11.21-62.89c10.99-61.76,22.01-123.52,32.89-185.29
				c0.51-2.89,1.38-4.09,4.37-3.86c10.28,0.8,20.63,0.97,30.84,2.28c12.27,1.58,21.98,6.87,23.92,20.74
				c0.02,0.2,0.24,0.37,0.43,0.54c0.01,0.02,0.03,0.03,0.05,0.05c0.01,0.01,0.03,0.03,0.04,0.04c0.03,0.03,0.05,0.06,0.08,0.09
				l0.01-0.01c3.22-1.16,6.54-2.65,9.83-4.36c1.24-0.64,2.47-1.31,3.69-2.01c0.41-0.23,0.81-0.47,1.22-0.71
				C399.374,40.09,410.733,30.03,414.684,22.02z"/>
			<path d="M785.154,100.99c0,15.33,0,30.24,0,45.74c-17.67,0-35.31,0-53.42,0c0-14.34-0.08-28.16,0.15-41.97
				c0.02-1.28,2.01-3.6,3.12-3.61C751.623,100.91,768.243,100.99,785.154,100.99z M775.424,137.64c0-9.36,0-18.39,0-27.61
				c-11.36,0-22.4,0-33.62,0c0,9.6,0,18.64,0,27.61C753.243,137.64,764.284,137.64,775.424,137.64z"/>
			<path fill="#FFFFFF" d="M775.424,110.03c0,9.22,0,18.25,0,27.61c-11.14,0-22.18,0-33.62,0c0-8.97,0-18.01,0-27.61
				C753.023,110.03,764.063,110.03,775.424,110.03z"/>
			<path d="M665.643,100.32c16.27,0,32.3,0,48.37,0c-1.61,6.2-5.36,9.25-11.69,9.3c-8.99,0.07-17.98,0.02-27.36,0.02
				c0,9.4,0,18.6,0,28.16c13.03,0,25.97,0,38.93,0c-0.08,0.99-0.24,1.93-0.5,2.81c-0.26,0.89-0.6,1.71-1.02,2.45
				c-0.28,0.5-0.6,0.96-0.94,1.38c-1.05,1.28-2.39,2.18-3.95,2.56c-0.25,0.05-0.49,0.1-0.75,0.13c-0.26,0.03-0.52,0.04-0.78,0.05
				c-4.39,0.07-8.78,0.11-13.18,0.12c-8.94,0.03-17.94-0.03-27.13-0.03C665.643,131.21,665.643,115.94,665.643,100.32z"/>
			<path d="M712.373,143.06c-0.28,0.5-0.59,0.96-0.94,1.38C711.773,144.02,712.094,143.56,712.373,143.06z"/>
			<path d="M639.633,118.94c0,9.67,0,18.69,0,28.05c-17.32,0-34.53,0-52.57,0c1.08-1.77,2.22-3.32,3.48-4.62
				c0.49-0.52,1.01-1,1.55-1.43c0.54-0.44,1.1-0.83,1.68-1.18c0.21-0.12,0.42-0.24,0.64-0.35c0.16-0.09,0.32-0.17,0.48-0.24
				c0.23-0.12,0.46-0.22,0.69-0.31c1.57-0.64,3.29-0.99,5.22-1.02c6.95-0.09,13.9-0.07,20.95-0.05c2.89,0.01,5.79,0.02,8.71,0.02
				v-0.01c0-3.16,0-5.89,0-9.01c-13.49,0-26.76,0-40.45,0c0-9.28,0-18.17,0-27.44c16.39,0,32.94,0,49.5,0
				c-0.82,3.75-3.05,6.52-6.32,7.92c-0.59,0.25-1.22,0.46-1.88,0.62c-0.5,0.12-1.01,0.21-1.54,0.28c-0.52,0.06-1.07,0.1-1.63,0.11
				c-7.83,0.11-15.66,0.02-23.49,0.04c-1.79,0.01-3.57,0.15-5.61,0.24c0,2.85,0,5.29,0,8.38
				C612.424,118.94,625.803,118.94,639.633,118.94z"/>
			<path d="M630.464,137.8v0.01c-2.92,0-5.82-0.01-8.71-0.02C624.633,137.79,627.534,137.8,630.464,137.8z"/>
			<path fill="#FFFFFF" d="M594.414,139.41c-0.22,0.11-0.43,0.23-0.64,0.35C593.984,139.63,594.193,139.51,594.414,139.41z"/>
			<path d="M510.654,101.07c17.94,0,35.32,0,52.77,0c-1.44,6.11-4.66,9.13-10.18,9.2c-10.49,0.13-20.99,0.07-31.48,0.02
				C515.924,110.27,512.823,106.72,510.654,101.07z"/>
			<path d="M511.113,138.02c17.44,0,34.83,0,52.26,0c-1.18,5.91-4.56,9.17-10.05,9.24c-10.65,0.14-21.31,0.14-31.97,0
				C516.083,147.19,512.763,144.04,511.113,138.02z"/>
			<path d="M511.404,119.19c17.52,0,34.67,0,51.85,0c-0.38,2.7-1.46,5.01-3.06,6.67c-0.4,0.41-0.83,0.79-1.3,1.11
				c-0.46,0.33-0.96,0.61-1.48,0.84c-0.79,0.34-1.63,0.58-2.53,0.68c-0.3,0.04-0.61,0.06-0.92,0.06c-4.01,0.08-8.03,0.13-12.04,0.15
				c-4.48,0.02-8.97,0.01-13.45-0.04c-2.49-0.02-4.99-0.05-7.48-0.09c-0.6-0.01-1.17-0.07-1.72-0.18c-0.56-0.11-1.09-0.27-1.6-0.48
				c-0.51-0.21-1-0.47-1.47-0.78c-0.46-0.31-0.9-0.67-1.32-1.07c-1.67-1.6-2.96-3.93-3.82-6.87
				C511.173,119.19,511.293,119.19,511.404,119.19z"/>
			<path d="M553.964,128.55c0.31,0,0.62-0.02,0.92-0.06c-0.3,0.04-0.61,0.06-0.92,0.07c-4.01,0.08-8.03,0.13-12.04,0.14
				C545.933,128.68,549.953,128.63,553.964,128.55z"/>
			<path d="M520.993,128.57c2.49,0.04,4.99,0.07,7.48,0.09c-2.49-0.02-4.99-0.04-7.48-0.08c-0.6-0.01-1.17-0.07-1.72-0.19
				C519.823,128.5,520.393,128.56,520.993,128.57z"/>
			<path d="M429.953,101.37c20.07,0,39.07,0,58.78,0c-1.48,5.31-4.82,8.43-9.71,9.07c-4.55,0.6-9.25,0.13-14.45,0.13
				c0,12.29,0,24.17,0,36.39c-3.3,0-6.04,0-9.41,0c0-11.99,0-23.87,0-34.9c-7.27-1.48-13.87-2.47-20.2-4.35
				C433.103,107.16,431.993,104.06,429.953,101.37z"/>
			<path fill="#DDDDDD" d="M429.784-5.28c-3.3,6.69-6.28,12.72-9.13,18.47c-102.08-40.72-203.47-40.73-305.69,0.01
				c-2.92-6.01-5.79-11.93-8.99-18.52C214.184-47.12,321.543-47.13,429.784-5.28z"/>
			<path fill="#DDDDDD" d="M412.094,20.63c0.9,0.4,1.73,0.93,2.59,1.39c-3.95,8.01-15.31,18.07-27.76,25.41
				c-0.41,0.24-0.81,0.48-1.22,0.71c-1.22,0.7-2.45,1.37-3.69,2.01c-3.29,1.71-6.61,3.2-9.83,4.36c-0.03-0.03-0.06-0.06-0.09-0.08
				c-0.01-0.01-0.03-0.03-0.04-0.04c-0.02-0.02-0.04-0.03-0.05-0.05c-0.19-0.17-0.41-0.34-0.43-0.54
				c-1.94-13.87-11.65-19.16-23.92-20.74c-10.21-1.31-20.56-1.48-30.84-2.28c-2.99-0.23-3.86,0.97-4.37,3.86
				c-10.89,61.77-21.9,123.53-32.89,185.29c-3.74,20.97-7.48,41.93-11.21,62.89c-0.32,0.04-0.63,0.08-0.95,0.11
				c-15.02-83.79-30.05-167.58-45.26-252.45c-9.84,0.58-19.73,1.12-29.61,1.81c-2.47,0.17-4.91,0.86-7.36,1.32
				c-6.15,1.15-11.3,3.32-15,7.12c-1.3,1.34-2.42,2.88-3.34,4.66c-0.15,0.29-0.3,0.6-0.44,0.9c-0.11,0.23-0.21,0.47-0.31,0.71
				c-0.2,0.47-0.38,0.97-0.55,1.47c-0.09,0.25-0.17,0.51-0.25,0.77c-0.21,0.7-0.4,1.42-0.56,2.17c-0.12,0.56-0.23,1.14-0.32,1.74
				c-0.1,0.6-0.18,1.21-0.24,1.84c-17.49-7.46-32.56-17.12-44.35-33.55c13.61-4.81,26.44-9.8,39.56-13.88
				c8.61-2.68,17.3-4.93,26.08-6.78c4.38-0.93,8.79-1.76,13.22-2.49c10.32-1.71,20.74-2.9,31.24-3.64c3.54-0.25,5.76,0.84,7.98,3.63
				c8.7,10.95,17.68,21.68,26.57,32.48c0.58,0.7,1.18,1.39,1.84,2.11c0.15,0.17,0.3,0.35,0.46,0.53c0.38,0.41,0.76,0.84,1.17,1.3
				l0.01,0.01c2.49-3.04,4.97-6.05,7.44-9.04v-0.01c1.24-1.5,2.47-2.99,3.7-4.47c0,0,0,0,0-0.01c1.24-1.49,2.46-2.98,3.68-4.46
				c4.9-5.95,9.73-11.87,14.49-17.85c0.43-0.54,0.86-1.03,1.3-1.46c0.59-0.58,1.18-1.06,1.81-1.45c1.69-1.06,3.62-1.45,6.13-1.26
				C343.133-2.49,378.423,5.75,412.094,20.63z"/>
			<path d="M372.184,54.51l-0.01,0.01c-0.03-0.03-0.05-0.06-0.08-0.09C372.124,54.45,372.154,54.48,372.184,54.51z"/>
			<path d="M275.374,25.67c-2.47,2.99-4.95,6-7.44,9.04l-0.01-0.01C270.413,31.67,272.893,28.66,275.374,25.67z"/>
		</g>
		<g>
		</g>
	</g>
</g>
</svg>
