<?xml version="1.0" encoding="utf-8"?>
<!-- Generator: Adobe Illustrator 17.0.0, SVG Export Plug-In . SVG Version: 6.00 Build 0)  -->
<!DOCTYPE svg PUBLIC "-//W3C//DTD SVG 1.1//EN" "http://www.w3.org/Graphics/SVG/1.1/DTD/svg11.dtd">
<svg version="1.1" id="Layer_1" xmlns="http://www.w3.org/2000/svg" xmlns:xlink="http://www.w3.org/1999/xlink" x="0px" y="0px"
	 width="323.81px" height="319.489px" viewBox="3.974 -1.232 323.81 319.489" enable-background="new 3.974 -1.232 323.81 319.489"
	 xml:space="preserve">
<g opacity="0.5">
	<g id="XMLID_1_">
		<g>
			<path d="M683.155,136.432c0,15.33,0,30.24,0,45.74c-17.67,0-35.31,0-53.42,0c0-14.34-0.08-28.17,0.15-41.98
				c0.02-1.28,2.01-3.59,3.12-3.61C649.625,136.352,666.245,136.432,683.155,136.432z M673.425,173.081c0-9.36,0-18.39,0-27.61
				c-11.36,0-22.4,0-33.62,0c0,9.6,0,18.64,0,27.61C651.245,173.081,662.285,173.081,673.425,173.081z"/>
			<path fill="#FFFFFF" d="M673.425,145.471c0,9.22,0,18.25,0,27.61c-11.14,0-22.18,0-33.62,0c0-8.97,0-18.01,0-27.61
				C651.025,145.471,662.065,145.471,673.425,145.471z"/>
			<path d="M563.645,135.762c16.27,0,32.3,0,48.37,0c-1.61,6.2-5.36,9.25-11.69,9.3c-8.99,0.07-17.98,0.02-27.36,0.02
				c0,9.4,0,18.6,0,28.16c13.03,0,25.97,0,38.93,0c-0.08,0.99-0.24,1.93-0.5,2.81c-0.26,0.89-0.6,1.71-1.02,2.45
				c-0.28,0.5-0.6,0.96-0.94,1.38c-1.05,1.28-2.39,2.17-3.95,2.56c-0.25,0.05-0.49,0.1-0.75,0.13s-0.52,0.04-0.78,0.05
				c-4.39,0.07-8.78,0.11-13.18,0.12c-8.94,0.03-17.94-0.03-27.13-0.03C563.645,166.652,563.645,151.382,563.645,135.762z"/>
			<path d="M610.375,178.502c-0.28,0.5-0.59,0.96-0.94,1.38C609.775,179.462,610.095,179.002,610.375,178.502z"/>
			<path d="M537.635,154.382c0,9.67,0,18.69,0,28.05c-17.32,0-34.53,0-52.57,0c1.08-1.77,2.22-3.32,3.48-4.62
				c0.49-0.52,1.01-1,1.55-1.43c0.54-0.44,1.1-0.83,1.68-1.18c0.21-0.12,0.42-0.24,0.64-0.35c0.16-0.09,0.32-0.17,0.48-0.24
				c0.23-0.12,0.46-0.22,0.69-0.31c1.57-0.64,3.29-0.99,5.22-1.02c6.95-0.09,13.9-0.07,20.95-0.05c1.45,0,2.89,0.01,4.34,0.01
				c1.45,0.01,2.91,0.01,4.37,0.01v-0.01c0-3.16,0-5.89,0-9.01c-13.49,0-26.76,0-40.45,0c0-9.28,0-18.17,0-27.44
				c16.39,0,32.94,0,49.5,0c-0.82,3.75-3.05,6.52-6.32,7.92c-0.59,0.25-1.22,0.46-1.88,0.62c-0.5,0.12-1.01,0.21-1.54,0.28
				c-0.52,0.06-1.07,0.1-1.63,0.11c-7.83,0.11-15.66,0.02-23.49,0.04c-1.79,0.01-3.57,0.15-5.61,0.24c0,2.85,0,5.29,0,8.38
				C510.425,154.382,523.805,154.382,537.635,154.382z"/>
			<path d="M528.465,173.242v0.01c-1.46,0-2.92,0-4.37-0.01c-0.48,0-0.97,0-1.45-0.01
				C524.575,173.232,526.515,173.242,528.465,173.242z"/>
			<path fill="#FFFFFF" d="M492.415,174.852c-0.22,0.11-0.43,0.23-0.64,0.35C491.985,175.072,492.195,174.941,492.415,174.852z"/>
			<path d="M461.425,136.512c-1.44,6.11-4.66,9.13-10.18,9.2c-10.49,0.12-20.99,0.07-31.48,0.01c-1.82-0.01-3.38-0.35-4.73-1
				c-0.27-0.13-0.53-0.27-0.78-0.43c-2.52-1.54-4.24-4.25-5.6-7.78C426.595,136.512,443.975,136.512,461.425,136.512z"/>
			<path d="M409.115,173.462c17.44,0,34.83,0,52.26,0c-1.18,5.91-4.56,9.17-10.05,9.24c-10.65,0.14-21.31,0.14-31.97,0
				C414.085,182.632,410.765,179.471,409.115,173.462z"/>
			<path d="M458.195,161.292v0.01c-0.4,0.41-0.83,0.79-1.3,1.11c-0.46,0.33-0.96,0.61-1.48,0.84c-0.2,0.08-0.4,0.16-0.6,0.23
				c0.2-0.08,0.4-0.15,0.6-0.24c0.52-0.23,1.02-0.51,1.48-0.84C457.365,162.081,457.795,161.712,458.195,161.292z"/>
			<path d="M452.425,163.971c0.16,0,0.31-0.02,0.46-0.04c-0.3,0.04-0.61,0.06-0.92,0.07
				C452.125,163.992,452.275,163.992,452.425,163.971z"/>
			<path d="M452.425,163.971c-0.15,0.02-0.3,0.02-0.46,0.03c-4.01,0.08-8.03,0.13-12.04,0.14c2-0.01,4.01-0.03,6.02-0.06
				c2.01-0.02,4.02-0.05,6.02-0.09C452.125,163.992,452.275,163.992,452.425,163.971z"/>
			<path d="M426.475,164.102c-2.49-0.02-4.99-0.05-7.48-0.08c-0.15-0.01-0.3-0.01-0.44-0.03c0.05,0.01,0.1,0.01,0.15,0
				c0.09,0.02,0.19,0.02,0.29,0.02C421.485,164.051,423.985,164.081,426.475,164.102z"/>
			<path d="M418.995,164.021c2.49,0.03,4.99,0.06,7.48,0.08C423.985,164.081,421.485,164.062,418.995,164.021z"/>
			<path d="M418.555,163.992c0.14,0.02,0.29,0.02,0.44,0.03c-0.3-0.01-0.59-0.03-0.88-0.06c0.1,0.01,0.19,0.02,0.29,0.02
				C418.455,163.992,418.505,163.992,418.555,163.992z"/>
			<path d="M416.665,163.682c0.2,0.06,0.4,0.11,0.61,0.15C417.065,163.792,416.865,163.742,416.665,163.682z"/>
			<path d="M412.885,161.502c-1.67-1.6-2.96-3.92-3.82-6.87c0.11,0,0.23,0,0.34,0c17.52,0,34.67,0,51.85,0
				c-0.38,2.69-1.46,5-3.06,6.66c-0.4,0.42-0.83,0.79-1.3,1.11c-0.46,0.33-0.96,0.61-1.48,0.84c-0.2,0.09-0.4,0.16-0.6,0.24
				c-0.61,0.21-1.25,0.37-1.93,0.44c-0.15,0.02-0.3,0.03-0.46,0.05c-0.15,0-0.3,0.01-0.46,0.01c-2,0.04-4.01,0.07-6.02,0.1
				c-2.01,0.02-4.02,0.04-6.02,0.05c-4.48,0.02-8.97,0.01-13.45-0.04c-2.49-0.02-4.99-0.05-7.48-0.09c-0.1,0-0.2,0-0.29-0.01
				c-0.05,0.01-0.1,0.01-0.15,0c-0.05,0-0.1,0-0.15-0.01c-0.2-0.02-0.39-0.04-0.57-0.06c-0.05,0-0.1-0.01-0.14-0.02
				c-0.14-0.02-0.28-0.04-0.42-0.07c-0.21-0.04-0.41-0.09-0.61-0.15c-0.21-0.05-0.41-0.12-0.6-0.19c-0.13-0.04-0.26-0.09-0.39-0.14
				c-0.18-0.08-0.36-0.16-0.54-0.25c-0.15-0.07-0.3-0.16-0.45-0.24c-0.16-0.09-0.32-0.19-0.48-0.29
				C413.745,162.262,413.305,161.902,412.885,161.502z"/>
			<path d="M409.405,154.632c-0.11,0-0.23,0-0.34,0v-0.01C409.175,154.632,409.295,154.632,409.405,154.632z"/>
			<path d="M327.955,136.812c20.07,0,39.07,0,58.78,0c-1.48,5.31-4.82,8.43-9.71,9.07c-4.55,0.6-9.25,0.13-14.45,0.13
				c0,12.29,0,24.17,0,36.38c-3.3,0-6.04,0-9.41,0c0-11.99,0-23.86,0-34.89v-0.01c-3.64-0.74-7.1-1.36-10.45-2.02
				c-1.67-0.34-3.32-0.68-4.95-1.06c-1.62-0.38-3.22-0.8-4.8-1.27c-0.35-0.1-0.67-0.29-0.98-0.55
				C330.655,141.452,329.615,139.002,327.955,136.812z"/>
			<path fill="#FC2000" d="M327.785,30.162c-3.3,6.69-6.28,12.72-9.13,18.47c-102.08-40.72-203.47-40.73-305.69,0.01
				c-2.92-6.01-5.79-11.93-8.99-18.52C112.185-11.678,219.545-11.688,327.785,30.162z"/>
			<path d="M270.185,89.952l-0.01,0.01c-0.01-0.01-0.03-0.03-0.04-0.05C270.155,89.922,270.165,89.932,270.185,89.952z"/>
			<path fill="#DDDDDD" d="M224.955,32.302c3.39,0.46,6.76,0.97,10.12,1.53C231.715,33.272,228.345,32.762,224.955,32.302z"/>
			<path fill="#DDDDDD" d="M204.485,30.132c6.87,0.53,13.69,1.25,20.47,2.17c-6.78-0.91-13.6-1.63-20.47-2.16
				c-2.51-0.19-4.44,0.2-6.13,1.26c-0.63,0.39-1.22,0.87-1.81,1.45v-0.01c0.59-0.58,1.18-1.06,1.81-1.45
				C200.045,30.332,201.975,29.942,204.485,30.132z"/>
			<path fill="#DDDDDD" d="M196.545,32.852c-0.11,0.11-0.22,0.22-0.33,0.33C196.315,33.062,196.435,32.952,196.545,32.852z"/>
			<path d="M171.695,63.142c-0.67,0.82-1.35,1.64-2.03,2.47c-1.16,1.4-2.33,2.82-3.5,4.24
				C168.015,67.602,169.855,65.362,171.695,63.142z"/>
			<path d="M169.665,65.612c-1.24,1.5-2.48,3.01-3.73,4.53c0.05-0.07,0.11-0.13,0.16-0.2c0.02-0.03,0.04-0.06,0.07-0.09
				C167.335,68.432,168.505,67.012,169.665,65.612z"/>
			<path d="M166.095,69.942c-0.05,0.07-0.11,0.13-0.16,0.2h-0.01C165.975,70.072,166.035,70.012,166.095,69.942z"/>
			<path fill="#FFFFFF" d="M12.965,48.642c102.22-40.74,203.61-40.73,305.69-0.01c2.85-5.75,5.83-11.78,9.13-18.47
				c-108.24-41.85-215.6-41.84-323.81-0.04C7.175,36.712,10.045,42.632,12.965,48.642z M416.065,163.492
				c0.19,0.08,0.39,0.14,0.6,0.19c0.2,0.06,0.4,0.11,0.61,0.15c0.14,0.03,0.28,0.05,0.42,0.07c0.04,0.01,0.09,0.02,0.14,0.02
				c0.09,0.02,0.19,0.03,0.28,0.04c0.29,0.03,0.58,0.05,0.88,0.06c2.49,0.04,4.99,0.06,7.48,0.08c4.48,0.05,8.97,0.06,13.45,0.04
				c4.01-0.01,8.03-0.06,12.04-0.14c0.31-0.01,0.62-0.03,0.92-0.07c-0.15,0.02-0.3,0.04-0.46,0.04c0.16-0.02,0.31-0.03,0.46-0.05
				c0.68-0.07,1.32-0.23,1.93-0.44c0.2-0.07,0.4-0.15,0.6-0.23c0.52-0.23,1.02-0.51,1.48-0.84c0.47-0.32,0.9-0.7,1.3-1.11v-0.01
				c1.6-1.66,2.68-3.97,3.06-6.66v-0.01c-17.18,0.01-34.33,0.01-51.85,0.01c-0.11,0-0.23,0-0.34-0.01v0.01
				c0.86,2.95,2.15,5.27,3.82,6.87c0.42,0.4,0.86,0.76,1.32,1.07c0.16,0.1,0.32,0.2,0.48,0.29c0.14,0.09,0.29,0.17,0.45,0.24
				c0.18,0.09,0.36,0.17,0.54,0.25C415.805,163.402,415.935,163.452,416.065,163.492z M409.115,173.462
				c1.65,6.01,4.97,9.17,10.24,9.24c10.66,0.14,21.32,0.14,31.97,0c5.49-0.07,8.87-3.33,10.05-9.24
				C443.945,173.462,426.555,173.462,409.115,173.462z M522.645,173.232c-0.97,0-1.93,0-2.89,0c-7.05-0.02-14-0.04-20.95,0.05
				c-1.93,0.03-3.65,0.38-5.22,1.02c-0.23,0.09-0.46,0.19-0.69,0.31c-0.16,0.07-0.32,0.15-0.48,0.24c-0.22,0.09-0.43,0.22-0.64,0.35
				c-0.58,0.35-1.14,0.74-1.68,1.18c-0.54,0.43-1.06,0.91-1.55,1.43c-1.26,1.3-2.4,2.85-3.48,4.62c18.04,0,35.25,0,52.57,0
				c0-9.36,0-18.38,0-28.05c-13.83,0-27.21,0-40.59,0c0-3.09,0-5.53,0-8.38c2.04-0.09,3.82-0.23,5.61-0.24
				c7.83-0.02,15.66,0.07,23.49-0.04c0.56-0.01,1.11-0.04,1.63-0.11c0.53-0.07,1.04-0.16,1.54-0.28c0.66-0.16,1.29-0.36,1.88-0.62
				c3.27-1.4,5.5-4.17,6.32-7.92c-16.56,0-33.11,0-49.5,0c0,9.27,0,18.16,0,27.44c13.69,0,26.96,0,40.45,0c0,3.12,0,5.85,0,9.01
				C526.515,173.242,524.575,173.232,522.645,173.232z M166.165,69.852c-0.03,0.03-0.05,0.06-0.07,0.09
				c-0.06,0.07-0.12,0.13-0.17,0.2c-0.41-0.46-0.79-0.89-1.17-1.3c-0.16-0.18-0.31-0.36-0.46-0.53c-0.66-0.72-1.26-1.41-1.84-2.11
				c-8.89-10.8-17.87-21.53-26.57-32.48c-2.22-2.79-4.44-3.88-7.98-3.63c-10.5,0.74-20.92,1.93-31.24,3.64
				c-4.43,0.73-8.84,1.56-13.22,2.49c-8.78,1.85-17.47,4.1-26.08,6.78c-13.12,4.08-25.95,9.07-39.56,13.88
				c2.95,4.11,6.1,7.79,9.45,11.12c4.17,4.17,8.65,7.79,13.41,10.99c0.47,0.32,0.95,0.63,1.43,0.95c0.96,0.63,1.93,1.24,2.91,1.83
				c5.41,3.27,11.14,6.1,17.15,8.66h0.01c0.07-0.63,0.14-1.24,0.23-1.84c0.09-0.61,0.2-1.18,0.32-1.74
				c0.16-0.75,0.35-1.47,0.56-2.17c0.08-0.26,0.16-0.52,0.25-0.77c0.17-0.5,0.36-1,0.55-1.47c0.1-0.24,0.2-0.48,0.31-0.71
				c0.14-0.31,0.29-0.61,0.44-0.91c0.92-1.77,2.04-3.31,3.34-4.65c0.69-0.71,1.44-1.37,2.23-1.97c2.38-1.81,5.19-3.13,8.35-4.09
				c0.7-0.21,1.42-0.4,2.16-0.58s1.49-0.34,2.26-0.48c2.45-0.46,4.89-1.16,7.36-1.32c4.94-0.34,9.88-0.66,14.82-0.95
				c4.94-0.29,9.87-0.57,14.79-0.86c15.21,84.87,30.24,168.65,45.26,252.44c0.32-0.03,0.63-0.06,0.95-0.1
				c3.73-20.97,7.47-41.93,11.21-62.9c10.99-61.76,22.01-123.51,32.89-185.28v-0.01c0.51-2.88,1.38-4.08,4.37-3.85
				c10.28,0.8,20.63,0.97,30.84,2.28c1.15,0.15,2.28,0.33,3.38,0.55c0.73,0.14,1.45,0.3,2.16,0.48c0.71,0.18,1.41,0.37,2.09,0.59
				c0.68,0.22,1.35,0.45,2,0.7c0.65,0.26,1.28,0.53,1.9,0.82c2.17,1.03,4.12,2.31,5.82,3.91c0.24,0.23,0.48,0.46,0.71,0.71
				c3.01,3.13,5.07,7.35,5.86,12.97c0.02,0.21,0.24,0.38,0.43,0.55c0,0.01,0.01,0.01,0.02,0.02c0.01,0.01,0.02,0.02,0.03,0.03
				c0.02,0.02,0.03,0.03,0.04,0.04c0.01,0.01,0.03,0.02,0.04,0.04c0.01,0.02,0.03,0.04,0.04,0.05l0.01-0.01
				c3.22-1.16,6.54-2.65,9.83-4.36c1.24-0.64,2.47-1.31,3.69-2.01c0.41-0.23,0.81-0.47,1.22-0.71c12.45-7.34,23.81-17.4,27.76-25.41
				c-0.86-0.46-1.69-0.99-2.59-1.39c-24.2-10.7-49.24-17.96-75.02-22.24c-3.36-0.56-6.73-1.07-10.12-1.53
				c-6.78-0.92-13.6-1.64-20.47-2.17c-2.51-0.19-4.44,0.2-6.13,1.26c-0.63,0.39-1.22,0.87-1.81,1.45v0.01
				c-0.11,0.1-0.23,0.21-0.33,0.33c-0.33,0.35-0.65,0.72-0.97,1.12c-4.76,5.98-9.59,11.9-14.49,17.85
				c-1.22,1.48-2.44,2.97-3.68,4.46c0,0.01,0,0.01,0,0.01c-1.23,1.48-2.46,2.97-3.7,4.47v0.01v0.01c-0.56,0.67-1.11,1.35-1.68,2.03
				C169.855,65.362,168.015,67.602,166.165,69.852z M836.355-90.618c0,166.88,0,333.85,0,500.82c-333.43,0-667,0-1000.63,0
				c0-166.91,0-333.82,0-500.82C169.165-90.618,502.675-90.618,836.355-90.618z M683.155,182.172c0-15.5,0-30.41,0-45.74v-0.01
				c-16.91,0-33.53-0.08-50.15,0.16c-1.11,0.02-3.1,2.33-3.12,3.61c-0.23,13.81-0.15,27.64-0.15,41.98
				C647.845,182.172,665.485,182.172,683.155,182.172z M600.325,145.062c6.33-0.05,10.08-3.1,11.69-9.3c-16.07,0-32.1,0-48.37,0
				c0,15.62,0,30.89,0,46.95c9.19,0,18.19,0.06,27.13,0.03c4.4-0.01,8.79-0.03,13.18-0.11c0.26,0,0.52-0.02,0.78-0.06
				c0.26-0.03,0.5-0.08,0.75-0.13c1.56-0.39,2.9-1.28,3.95-2.56c0.35-0.42,0.66-0.88,0.94-1.38c0.42-0.74,0.76-1.56,1.02-2.45
				c0.26-0.88,0.42-1.82,0.5-2.81c-12.96,0-25.9,0-38.93,0c0-9.56,0-18.76,0-28.16C582.345,145.081,591.335,145.132,600.325,145.062
				z M451.245,145.712c5.52-0.07,8.74-3.09,10.18-9.2c-17.45,0-34.83,0-52.77,0c1.36,3.53,3.08,6.24,5.6,7.78
				c0.25,0.16,0.51,0.3,0.78,0.43c1.35,0.65,2.91,1,4.73,1.01C430.255,145.782,440.755,145.842,451.245,145.712z M377.025,145.882
				c4.89-0.64,8.23-3.76,9.71-9.07c-19.71,0-38.71,0-58.78,0c1.66,2.19,2.7,4.64,4.03,5.78c0.31,0.26,0.63,0.46,0.98,0.56
				c1.58,0.47,3.18,0.88,4.8,1.26c1.63,0.38,3.28,0.72,4.95,1.06c3.35,0.67,6.81,1.29,10.45,2.03c0,11.03,0,22.9,0,34.89v0.01
				c3.37,0,6.11,0,9.41,0v-0.01c0-12.21,0-24.09,0-36.38C367.775,146.012,372.475,146.482,377.025,145.882z"/>
			<polygon points="165.935,70.142 165.935,70.152 165.925,70.142 			"/>
			<path fill="#0080DB" d="M164.755,68.842c0.38,0.41,0.76,0.84,1.17,1.3l0.01,0.01v-0.01c1.25-1.52,2.49-3.03,3.73-4.53
				c0.68-0.83,1.36-1.65,2.03-2.47c0.57-0.68,1.12-1.36,1.68-2.03v-0.01v-0.01c1.24-1.5,2.47-2.99,3.7-4.47c0,0,0,0,0-0.01
				c1.24-1.49,2.46-2.98,3.68-4.46c4.9-5.95,9.73-11.87,14.49-17.85c0.32-0.4,0.64-0.77,0.97-1.12c0.11-0.11,0.22-0.22,0.33-0.33
				c0.59-0.58,1.18-1.06,1.81-1.45c1.69-1.06,3.62-1.45,6.13-1.26c6.87,0.53,13.69,1.25,20.47,2.16c3.39,0.46,6.76,0.97,10.12,1.53
				c25.78,4.28,50.82,11.54,75.02,22.24c0.9,0.4,1.73,0.93,2.59,1.39c-3.95,8.01-15.31,18.07-27.76,25.41
				c-0.41,0.24-0.81,0.48-1.22,0.71c-1.22,0.7-2.45,1.37-3.69,2.01c-3.29,1.71-6.61,3.2-9.83,4.36c-0.02-0.02-0.03-0.03-0.05-0.04
				c-0.01-0.02-0.03-0.03-0.04-0.04c-0.01-0.01-0.02-0.02-0.04-0.04v-0.01c-0.01-0.01-0.02-0.01-0.03-0.02
				c-0.01-0.01-0.02-0.01-0.02-0.02c-0.19-0.17-0.41-0.34-0.43-0.55c-0.79-5.62-2.85-9.84-5.86-12.97
				c-0.23-0.24-0.47-0.48-0.71-0.71c-1.7-1.6-3.65-2.88-5.82-3.91c-0.62-0.3-1.25-0.57-1.9-0.82c-0.65-0.25-1.32-0.49-2-0.7
				c-0.68-0.22-1.38-0.41-2.09-0.59c-0.71-0.18-1.43-0.34-2.16-0.48c-1.1-0.22-2.23-0.4-3.38-0.55
				c-10.21-1.31-20.56-1.48-30.84-2.28c-2.99-0.23-3.86,0.97-4.37,3.85v0.01c-10.89,61.78-21.9,123.53-32.89,185.28
				c-3.74,20.97-7.48,41.93-11.21,62.9c-0.32,0.04-0.63,0.07-0.95,0.1c-15.02-83.79-30.05-167.57-45.26-252.44v-0.01
				c-4.92,0.29-9.85,0.57-14.79,0.87c-4.94,0.29-9.88,0.61-14.82,0.95c-2.47,0.16-4.91,0.86-7.36,1.32
				c-0.77,0.14-1.52,0.3-2.26,0.48c-0.74,0.17-1.46,0.37-2.16,0.58c-3.16,0.95-5.97,2.28-8.35,4.09c-0.79,0.6-1.54,1.26-2.23,1.97
				c-1.3,1.34-2.42,2.88-3.34,4.65c-0.15,0.3-0.3,0.6-0.44,0.91c-0.11,0.23-0.21,0.46-0.31,0.71c-0.2,0.47-0.38,0.97-0.55,1.47
				c-0.09,0.25-0.17,0.5-0.25,0.77c-0.21,0.7-0.4,1.42-0.56,2.17c-0.12,0.56-0.23,1.13-0.32,1.74c-0.1,0.6-0.18,1.21-0.24,1.84
				c-6.01-2.56-11.74-5.39-17.15-8.66c-0.98-0.6-1.95-1.21-2.91-1.83c-0.48-0.32-0.96-0.63-1.43-0.95
				c-4.76-3.21-9.24-6.82-13.41-10.99c-3.35-3.33-6.5-7.01-9.45-11.12c13.61-4.81,26.44-9.8,39.56-13.88
				c8.61-2.68,17.3-4.93,26.08-6.78c4.38-0.93,8.79-1.76,13.22-2.49c10.32-1.71,20.74-2.9,31.24-3.64c3.54-0.25,5.76,0.84,7.98,3.63
				c8.7,10.95,17.68,21.68,26.57,32.48c0.58,0.7,1.18,1.39,1.84,2.11C164.445,68.482,164.595,68.662,164.755,68.842z"/>
			<path fill="#DDDDDD" d="M78.745,70.112c0.7-0.21,1.42-0.41,2.16-0.58C80.165,69.712,79.445,69.902,78.745,70.112z"/>
			<path fill="#DDDDDD" d="M70.395,74.202c2.38-1.81,5.19-3.14,8.35-4.09C75.585,71.072,72.775,72.392,70.395,74.202z"/>
			<path fill="#DDDDDD" d="M64.385,81.732c-0.11,0.23-0.21,0.47-0.31,0.71C64.175,82.192,64.275,81.962,64.385,81.732z"/>
		</g>
		<g>
		</g>
	</g>
</g>
</svg>
