<?xml version="1.0" encoding="utf-8"?>
<!-- Generator: Adobe Illustrator 17.0.0, SVG Export Plug-In . SVG Version: 6.00 Build 0)  -->
<!DOCTYPE svg PUBLIC "-//W3C//DTD SVG 1.1//EN" "http://www.w3.org/Graphics/SVG/1.1/DTD/svg11.dtd">
<svg version="1.1" id="Layer_1" xmlns="http://www.w3.org/2000/svg" xmlns:xlink="http://www.w3.org/1999/xlink" x="0px" y="0px"
	 width="682.667px" height="322px" viewBox="0 0 682.667 322" enable-background="new 0 0 682.667 322" xml:space="preserve">
<g>
	<g id="XMLID_1_">
		<g>
			<path d="M681.154,138.82c0,15.33,0,30.24,0,45.74c-17.67,0-35.31,0-53.42,0c0-14.34-0.08-28.16,0.15-41.97
				c0.02-1.28,2.01-3.6,3.12-3.61C647.623,138.74,664.243,138.82,681.154,138.82z M671.424,175.47c0-9.36,0-18.39,0-27.61
				c-11.36,0-22.4,0-33.62,0c0,9.6,0,18.64,0,27.61C649.243,175.47,660.284,175.47,671.424,175.47z"/>
			<path fill="#FFFFFF" d="M671.424,147.86c0,9.22,0,18.25,0,27.61c-11.14,0-22.18,0-33.62,0c0-8.97,0-18.01,0-27.61
				C649.023,147.86,660.063,147.86,671.424,147.86z"/>
			<path d="M610.013,138.15c-1.61,6.2-5.36,9.25-11.69,9.3c-8.99,0.07-17.98,0.02-27.36,0.02c0,9.4,0,18.6,0,28.16
				c13.03,0,25.97,0,38.93,0c-0.08,0.99-0.24,1.93-0.5,2.81c-0.26,0.89-0.6,1.71-1.02,2.45c-0.28,0.5-0.6,0.96-0.94,1.38
				c-1.05,1.28-2.39,2.18-3.95,2.56c-0.25,0.05-0.49,0.1-0.75,0.13c-0.26,0.03-0.52,0.04-0.78,0.05c-4.39,0.07-8.78,0.11-13.18,0.12
				c-8.94,0.03-17.94-0.03-27.13-0.03c0-16.06,0-31.33,0-46.95C577.914,138.15,593.943,138.15,610.013,138.15z"/>
			<path d="M608.373,180.89c-0.28,0.5-0.59,0.96-0.94,1.38C607.773,181.85,608.094,181.39,608.373,180.89z"/>
			<path d="M535.633,156.77c0,9.67,0,18.69,0,28.05c-17.32,0-34.53,0-52.57,0c1.08-1.77,2.22-3.32,3.48-4.62
				c0.49-0.52,1.01-1,1.55-1.43c0.54-0.44,1.1-0.83,1.68-1.18c0.21-0.13,0.42-0.25,0.64-0.35c0.16-0.09,0.32-0.17,0.48-0.24
				c0.23-0.12,0.46-0.22,0.69-0.31c1.57-0.64,3.29-0.99,5.22-1.02c6.95-0.09,13.9-0.07,20.95-0.05c2.89,0.01,5.79,0.02,8.71,0.02
				v-0.01c0-3.16,0-5.89,0-9.01c-13.49,0-26.76,0-40.45,0c0-9.28,0-18.17,0-27.44c16.39,0,32.94,0,49.5,0
				c-0.82,3.75-3.05,6.52-6.32,7.92c-0.59,0.25-1.22,0.46-1.88,0.62c-0.5,0.12-1.01,0.21-1.54,0.28c-0.52,0.06-1.07,0.1-1.63,0.11
				c-7.83,0.11-15.66,0.02-23.49,0.04c-1.79,0.01-3.57,0.15-5.61,0.24c0,2.85,0,5.29,0,8.38
				C508.423,156.77,521.803,156.77,535.633,156.77z"/>
			<path d="M526.464,175.63v0.01c-2.92,0-5.82-0.01-8.71-0.02C520.633,175.62,523.534,175.63,526.464,175.63z"/>
			<path d="M491.583,176.69c-0.23,0.09-0.46,0.19-0.69,0.31C491.124,176.88,491.353,176.78,491.583,176.69z"/>
			<path d="M490.413,177.24c0.16-0.09,0.32-0.17,0.48-0.24C490.733,177.07,490.573,177.15,490.413,177.24z"/>
			<path d="M490.413,177.24c-0.22,0.1-0.43,0.22-0.64,0.35C489.983,177.47,490.193,177.35,490.413,177.24z"/>
			<path d="M406.654,138.9c17.94,0,35.32,0,52.77,0c-1.44,6.11-4.66,9.13-10.18,9.2c-10.49,0.13-20.99,0.07-31.48,0.02
				C411.923,148.1,408.823,144.55,406.654,138.9z"/>
			<path d="M407.113,175.85c17.44,0,34.83,0,52.26,0c-1.18,5.91-4.56,9.17-10.05,9.24c-10.65,0.14-21.31,0.14-31.97,0
				C412.083,185.02,408.763,181.87,407.113,175.85z"/>
			<path d="M450.883,166.32c-0.3,0.04-0.61,0.06-0.92,0.07c-4.01,0.08-8.03,0.13-12.04,0.14c4.01-0.02,8.03-0.07,12.04-0.15
				C450.273,166.38,450.583,166.36,450.883,166.32z"/>
			<path d="M416.993,166.4c2.49,0.04,4.99,0.07,7.48,0.09c-2.49-0.02-4.99-0.04-7.48-0.08c-0.6-0.01-1.17-0.07-1.72-0.19
				C415.823,166.33,416.393,166.39,416.993,166.4z"/>
			<path d="M407.404,157.02c17.52,0,34.67,0,51.85,0c-0.38,2.7-1.46,5.01-3.06,6.67c-0.4,0.41-0.83,0.79-1.3,1.11
				c-0.46,0.33-0.96,0.61-1.48,0.84c-0.79,0.34-1.63,0.58-2.53,0.68c-0.3,0.04-0.61,0.06-0.92,0.06c-4.01,0.08-8.03,0.13-12.04,0.15
				c-4.48,0.02-8.97,0.01-13.45-0.04c-2.49-0.02-4.99-0.05-7.48-0.09c-0.6-0.01-1.17-0.07-1.72-0.18c-0.56-0.11-1.09-0.27-1.6-0.48
				c-0.51-0.21-1-0.47-1.47-0.78c-0.46-0.31-0.9-0.67-1.32-1.07c-1.67-1.6-2.96-3.93-3.82-6.87
				C407.173,157.02,407.293,157.02,407.404,157.02z"/>
			<path d="M325.953,139.2c20.07,0,39.07,0,58.78,0c-1.48,5.31-4.82,8.43-9.71,9.07c-4.55,0.6-9.25,0.13-14.45,0.13
				c0,12.29,0,24.17,0,36.39c-3.3,0-6.04,0-9.41,0c0-11.99,0-23.87,0-34.9c-7.27-1.48-13.87-2.47-20.2-4.35
				C329.103,144.99,327.993,141.89,325.953,139.2z"/>
			<path d="M1.973,32.51c108.21-41.8,215.57-41.81,323.81,0.04c-3.3,6.69-6.28,12.72-9.13,18.47
				c-102.08-40.72-203.47-40.73-305.69,0.01C8.043,45.02,5.173,39.1,1.973,32.51z"/>
			<path d="M268.184,92.34l-0.01,0.01c-0.03-0.03-0.05-0.06-0.08-0.09C268.124,92.28,268.154,92.31,268.184,92.34z"/>
			<path d="M171.373,63.5c-2.47,2.99-4.95,6-7.44,9.04l-0.01-0.01C166.413,69.5,168.893,66.49,171.373,63.5z"/>
			<path fill="#FFFFFF" d="M406.654,138.9c2.17,5.65,5.27,9.2,11.11,9.22c10.49,0.05,20.99,0.11,31.48-0.02
				c5.52-0.07,8.74-3.09,10.18-9.2C441.974,138.9,424.594,138.9,406.654,138.9z M407.113,175.85c1.65,6.02,4.97,9.17,10.24,9.24
				c10.66,0.14,21.32,0.14,31.97,0c5.49-0.07,8.87-3.33,10.05-9.24C441.943,175.85,424.553,175.85,407.113,175.85z M410.883,163.89
				c0.42,0.4,0.86,0.76,1.32,1.07c0.47,0.31,0.96,0.57,1.47,0.78c0.51,0.21,1.04,0.37,1.6,0.48c0.55,0.12,1.12,0.18,1.72,0.19
				c2.49,0.04,4.99,0.06,7.48,0.08c4.48,0.05,8.97,0.06,13.45,0.04c4.01-0.01,8.03-0.06,12.04-0.14c0.31-0.01,0.62-0.03,0.92-0.07
				c0.9-0.1,1.74-0.34,2.53-0.68c0.52-0.23,1.02-0.51,1.48-0.84c0.47-0.32,0.9-0.7,1.3-1.11c1.6-1.66,2.68-3.97,3.06-6.67v-0.01
				c-17.18,0.01-34.33,0.01-51.85,0.01c-0.11,0-0.23,0-0.34,0C407.923,159.96,409.214,162.29,410.883,163.89z M330.964,145.54
				c6.33,1.88,12.93,2.87,20.2,4.35c0,11.03,0,22.91,0,34.9c3.37,0,6.11,0,9.41,0c0-12.22,0-24.1,0-36.39c5.2,0,9.9,0.47,14.45-0.13
				c4.89-0.64,8.23-3.76,9.71-9.07c-19.71,0-38.71,0-58.78,0C327.993,141.89,329.103,144.99,330.964,145.54z M15.803,59.27
				c11.79,16.43,26.86,26.09,44.35,33.55h0.01c0.07-0.63,0.14-1.24,0.23-1.84c0.09-0.6,0.2-1.18,0.32-1.74
				c0.16-0.75,0.35-1.47,0.56-2.17c0.08-0.26,0.16-0.52,0.25-0.77c0.17-0.5,0.36-1,0.55-1.47c0.1-0.24,0.2-0.48,0.31-0.71
				c0.14-0.3,0.29-0.61,0.44-0.9c0.92-1.78,2.04-3.32,3.34-4.66c3.7-3.8,8.85-5.97,15-7.12c2.45-0.46,4.89-1.15,7.36-1.32
				c9.88-0.69,19.77-1.23,29.61-1.81c15.21,84.87,30.24,168.66,45.26,252.45c0.32-0.03,0.63-0.07,0.95-0.11
				c3.73-20.96,7.47-41.92,11.21-62.89c10.99-61.76,22.01-123.52,32.89-185.29c0.51-2.89,1.38-4.09,4.37-3.86
				c10.28,0.8,20.63,0.97,30.84,2.28c12.27,1.58,21.98,6.87,23.92,20.74c0.02,0.2,0.24,0.37,0.43,0.54
				c0.01,0.02,0.03,0.03,0.05,0.05c0.01,0.01,0.03,0.03,0.04,0.04c0.03,0.03,0.05,0.06,0.08,0.09l0.01-0.01
				c3.22-1.16,6.54-2.65,9.83-4.36c1.24-0.64,2.47-1.31,3.69-2.01c0.41-0.23,0.81-0.47,1.22-0.71c12.45-7.34,23.81-17.4,27.76-25.41
				c-0.86-0.46-1.69-0.99-2.59-1.39c-33.67-14.88-68.96-23.12-105.61-25.93c-2.51-0.19-4.44,0.2-6.13,1.26
				c-0.63,0.39-1.22,0.87-1.81,1.45c-0.44,0.43-0.87,0.92-1.3,1.46c-4.76,5.98-9.59,11.9-14.49,17.85
				c-1.22,1.48-2.44,2.97-3.68,4.46c0,0.01,0,0.01,0,0.01c-1.23,1.48-2.46,2.97-3.7,4.47v0.01c-2.48,2.99-4.96,6-7.45,9.03
				c-0.41-0.46-0.79-0.89-1.17-1.3c-0.16-0.18-0.31-0.36-0.46-0.53c-0.66-0.72-1.26-1.41-1.84-2.11
				c-8.89-10.8-17.87-21.53-26.57-32.48c-2.22-2.79-4.44-3.88-7.98-3.63c-10.5,0.74-20.92,1.93-31.24,3.64
				c-4.43,0.73-8.84,1.56-13.22,2.49c-8.78,1.85-17.47,4.1-26.08,6.78C42.243,49.47,29.413,54.46,15.803,59.27z M10.963,51.03
				c102.22-40.74,203.61-40.73,305.69-0.01c2.85-5.75,5.83-11.78,9.13-18.47C217.544-9.3,110.183-9.29,1.973,32.51
				C5.173,39.1,8.043,45.02,10.963,51.03z M834.354-88.23c0,166.88,0,333.85,0,500.83c-333.43,0-667,0-1000.63,0
				c0-166.91,0-333.82,0-500.83C167.163-88.23,500.673-88.23,834.354-88.23z M681.154,184.56c0-15.5,0-30.41,0-45.74
				c-16.91,0-33.53-0.08-50.15,0.16c-1.11,0.01-3.1,2.33-3.12,3.61c-0.23,13.81-0.15,27.63-0.15,41.97
				C645.844,184.56,663.484,184.56,681.154,184.56z M598.323,147.45c6.33-0.05,10.08-3.1,11.69-9.3c-16.07,0-32.1,0-48.37,0
				c0,15.62,0,30.89,0,46.95c9.19,0,18.19,0.06,27.13,0.03c4.4-0.01,8.79-0.03,13.18-0.11c0.26,0,0.52-0.02,0.78-0.06
				c0.26-0.03,0.5-0.08,0.75-0.13c1.56-0.38,2.9-1.28,3.95-2.56c0.35-0.42,0.66-0.88,0.94-1.38c0.42-0.74,0.76-1.56,1.02-2.45
				c0.26-0.88,0.42-1.82,0.5-2.81c-12.96,0-25.9,0-38.93,0c0-9.56,0-18.76,0-28.16C580.344,147.47,589.333,147.52,598.323,147.45z
				 M535.633,184.82c0-9.36,0-18.38,0-28.05c-13.83,0-27.21,0-40.59,0c0-3.09,0-5.53,0-8.38c2.04-0.09,3.82-0.23,5.61-0.24
				c7.83-0.02,15.66,0.07,23.49-0.04c0.56-0.01,1.11-0.04,1.63-0.11c0.53-0.07,1.04-0.16,1.54-0.28c0.66-0.16,1.29-0.36,1.88-0.62
				c3.27-1.4,5.5-4.17,6.32-7.92c-16.56,0-33.11,0-49.5,0c0,9.27,0,18.16,0,27.44c13.69,0,26.96,0,40.45,0c0,3.12,0,5.85,0,9.01
				c-2.93,0-5.83-0.01-8.71-0.01c-7.05-0.02-14-0.04-20.95,0.05c-1.93,0.03-3.65,0.38-5.22,1.02c-0.23,0.09-0.46,0.19-0.69,0.31
				c-0.16,0.07-0.32,0.15-0.48,0.24c-0.22,0.11-0.43,0.23-0.64,0.35c-0.58,0.35-1.14,0.74-1.68,1.18c-0.54,0.43-1.06,0.91-1.55,1.43
				c-1.26,1.3-2.4,2.85-3.48,4.62C501.103,184.82,518.313,184.82,535.633,184.82z"/>
			<path d="M125.903,32.48c3.54-0.25,5.76,0.84,7.98,3.63c8.7,10.95,17.68,21.68,26.57,32.48c0.58,0.7,1.18,1.39,1.84,2.11
				c0.15,0.17,0.3,0.35,0.46,0.53c0.38,0.41,0.76,0.84,1.17,1.3l0.01,0.01c2.49-3.04,4.97-6.05,7.44-9.04v-0.01
				c1.24-1.5,2.47-2.99,3.7-4.47c0,0,0,0,0-0.01c1.24-1.49,2.46-2.98,3.68-4.46c4.9-5.95,9.73-11.87,14.49-17.85
				c0.43-0.54,0.86-1.03,1.3-1.46c0.59-0.58,1.18-1.06,1.81-1.45c1.69-1.06,3.62-1.45,6.13-1.26
				c36.65,2.81,71.94,11.05,105.61,25.93c0.9,0.4,1.73,0.93,2.59,1.39c-3.95,8.01-15.31,18.07-27.76,25.41
				c-0.41,0.24-0.81,0.48-1.22,0.71c-1.22,0.7-2.45,1.37-3.69,2.01c-3.29,1.71-6.61,3.2-9.83,4.36c-0.03-0.03-0.06-0.06-0.09-0.08
				c-0.01-0.01-0.03-0.03-0.04-0.04c-0.02-0.02-0.04-0.03-0.05-0.05c-0.19-0.17-0.41-0.34-0.43-0.54
				c-1.94-13.87-11.65-19.16-23.92-20.74c-10.21-1.31-20.56-1.48-30.84-2.28c-2.99-0.23-3.86,0.97-4.37,3.86
				c-10.89,61.77-21.9,123.53-32.89,185.29c-3.74,20.97-7.48,41.93-11.21,62.89c-0.32,0.04-0.63,0.08-0.95,0.11
				c-15.02-83.79-30.05-167.58-45.26-252.45c-9.84,0.58-19.73,1.12-29.61,1.81c-2.47,0.17-4.91,0.86-7.36,1.32
				c-6.15,1.15-11.3,3.32-15,7.12c-1.3,1.34-2.42,2.88-3.34,4.66c-0.15,0.29-0.3,0.6-0.44,0.9c-0.11,0.23-0.21,0.47-0.31,0.71
				c-0.2,0.47-0.38,0.97-0.55,1.47c-0.09,0.25-0.17,0.51-0.25,0.77c-0.21,0.7-0.4,1.42-0.56,2.17c-0.12,0.56-0.23,1.14-0.32,1.74
				c-0.1,0.6-0.18,1.21-0.24,1.84c-17.49-7.46-32.56-17.12-44.35-33.55c13.61-4.81,26.44-9.8,39.56-13.88
				c8.61-2.68,17.3-4.93,26.08-6.78c4.38-0.93,8.79-1.76,13.22-2.49C104.983,34.41,115.403,33.22,125.903,32.48z"/>
		</g>
		<g>
		</g>
	</g>
</g>
</svg>
